<svg width="132" height="58" viewBox="0 0 132 58" fill="none" xmlns="http://www.w3.org/2000/svg">
<g filter="url(#filter0_d)">
<path d="M6.37109 39.6523C8.36328 40.7773 10.3789 41.7969 12.418 42.7109C14.4805 43.6016 16.6133 44.3633 18.8164 44.9961C21.0195 45.6055 23.3281 46.0742 25.7422 46.4023C28.1797 46.7305 30.7695 46.8945 33.5117 46.8945C36.8164 46.8945 39.6289 46.6836 41.9492 46.2617C44.2695 45.8164 46.1562 45.2188 47.6094 44.4688C49.0859 43.6953 50.1523 42.7812 50.8086 41.7266C51.4883 40.6719 51.8281 39.5234 51.8281 38.2812C51.8281 36.2891 50.9961 34.7188 49.332 33.5703C47.668 32.3984 45.1016 31.8125 41.6328 31.8125C40.1094 31.8125 38.5039 31.918 36.8164 32.1289C35.1289 32.3164 33.418 32.5273 31.6836 32.7617C29.9727 32.9961 28.2734 33.2188 26.5859 33.4297C24.9219 33.6172 23.3516 33.7109 21.875 33.7109C19.4141 33.7109 17.0469 33.3945 14.7734 32.7617C12.5234 32.1289 10.5195 31.1797 8.76172 29.9141C7.02734 28.6484 5.64453 27.0664 4.61328 25.168C3.58203 23.2695 3.06641 21.0547 3.06641 18.5234C3.06641 17.0234 3.26562 15.5352 3.66406 14.0586C4.08594 12.582 4.74219 11.1758 5.63281 9.83984C6.54688 8.48047 7.71875 7.22656 9.14844 6.07812C10.5781 4.90625 12.3008 3.89844 14.3164 3.05469C16.3555 2.21094 18.6992 1.55469 21.3477 1.08594C24.0195 0.59375 27.0547 0.347656 30.4531 0.347656C32.9141 0.347656 35.3867 0.488281 37.8711 0.769531C40.3555 1.02734 42.7695 1.40234 45.1133 1.89453C47.4805 2.38672 49.7539 2.98438 51.9336 3.6875C54.1133 4.36719 56.1406 5.12891 58.0156 5.97266L53.1289 14.9727C51.582 14.293 49.918 13.6719 48.1367 13.1094C46.3555 12.5234 44.4922 12.0195 42.5469 11.5977C40.6016 11.1758 38.5859 10.8477 36.5 10.6133C34.4375 10.3555 32.3281 10.2266 30.1719 10.2266C27.1016 10.2266 24.5703 10.4492 22.5781 10.8945C20.6094 11.3398 19.0391 11.9141 17.8672 12.6172C16.6953 13.2969 15.875 14.0703 15.4062 14.9375C14.9609 15.7812 14.7383 16.625 14.7383 17.4688C14.7383 19.1094 15.4766 20.457 16.9531 21.5117C18.4297 22.543 20.6797 23.0586 23.7031 23.0586C24.9219 23.0586 26.3164 22.9766 27.8867 22.8125C29.4805 22.625 31.1445 22.4258 32.8789 22.2148C34.6367 22.0039 36.418 21.8164 38.2227 21.6523C40.0508 21.4648 41.8203 21.3711 43.5312 21.3711C46.7656 21.3711 49.625 21.7344 52.1094 22.4609C54.6172 23.1875 56.7148 24.2305 58.4023 25.5898C60.0898 26.9258 61.3672 28.5547 62.2344 30.4766C63.1016 32.375 63.5352 34.5078 63.5352 36.875C63.5352 40.0391 62.7969 42.8633 61.3203 45.3477C59.8672 47.8086 57.7812 49.8945 55.0625 51.6055C52.3672 53.293 49.1094 54.582 45.2891 55.4727C41.4688 56.3398 37.2148 56.7734 32.5273 56.7734C29.4336 56.7734 26.4102 56.5742 23.457 56.1758C20.5039 55.8008 17.668 55.2617 14.9492 54.5586C12.2539 53.832 9.67578 52.9766 7.21484 51.9922C4.77734 50.9844 2.51562 49.8828 0.429688 48.6875L6.37109 39.6523ZM75.8047 1.05078H86.9492V29.4922L115.953 1.05078H130.227L103.156 27.2773L130.227 56H115.391L95.1406 35.0469L86.9492 42.957V56H75.8047V1.05078Z" fill="#FF1842"/>
</g>
<defs>
<filter id="filter0_d" x="0.429688" y="0.347656" width="130.797" height="57.4258" filterUnits="userSpaceOnUse" color-interpolation-filters="sRGB">
<feFlood flood-opacity="0" result="BackgroundImageFix"/>
<feColorMatrix in="SourceAlpha" type="matrix" values="0 0 0 0 0 0 0 0 0 0 0 0 0 0 0 0 0 0 127 0"/>
<feOffset dx="1" dy="1"/>
<feColorMatrix type="matrix" values="0 0 0 0 0.227451 0 0 0 0 0.972549 0 0 0 0 0.839216 0 0 0 1 0"/>
<feBlend mode="normal" in2="BackgroundImageFix" result="effect1_dropShadow"/>
<feBlend mode="normal" in="SourceGraphic" in2="effect1_dropShadow" result="shape"/>
</filter>
</defs>
</svg>
