<svg width="80" height="80" viewBox="0 0 80 80" fill="none" xmlns="http://www.w3.org/2000/svg">
<g clip-path="url(#clip0)">
<path d="M31.875 35.6248V23.2898H40.775C45.64 23.2898 48.485 25.5748 48.485 29.4748C48.485 33.4848 45.465 35.6248 39.665 35.6248H31.875ZM31.875 54.4348H41.365C47.285 54.4348 50.415 52.0348 50.415 47.5498C50.415 43.1248 47.165 40.8098 40.985 40.8098H31.875V54.4348Z" fill="white"/>
<path d="M20.0098 0C14.7054 0 9.61836 2.10714 5.86763 5.85786C2.1169 9.60859 0.00976563 14.6957 0.00976562 20V60C0.00976563 65.3043 2.1169 70.3914 5.86763 74.1421C9.61836 77.8929 14.7054 80 20.0098 80H60.0098C65.3141 80 70.4012 77.8929 74.1519 74.1421C77.9026 70.3914 80.0098 65.3043 80.0098 60V20C80.0098 14.6957 77.9026 9.60859 74.1519 5.85786C70.4012 2.10714 65.3141 0 60.0098 0L20.0098 0ZM25.3098 60V17.725H42.3048C50.2398 17.725 55.0198 21.77 55.0198 28.275C55.0198 32.695 51.7698 36.65 47.6048 37.355V37.855C53.3198 38.44 57.1248 42.51 57.1248 48.02C57.1248 55.46 51.7048 60 42.6848 60H25.3098Z" fill="white"/>
</g>
<defs>
<clipPath id="clip0">
<rect width="80" height="80" fill="white"/>
</clipPath>
</defs>
</svg>
