<svg width="301" height="301" viewBox="0 0 301 301" fill="none" xmlns="http://www.w3.org/2000/svg">
<path d="M139.636 18.4159C140.496 18.9197 141.366 19.3764 142.246 19.7858C143.136 20.1847 144.057 20.5259 145.008 20.8093C145.959 21.0822 146.955 21.2922 147.997 21.4391C149.049 21.5861 150.167 21.6596 151.351 21.6596C152.777 21.6596 153.991 21.5651 154.993 21.3761C155.994 21.1767 156.808 20.909 157.436 20.5731C158.073 20.2267 158.533 19.8173 158.816 19.3449C159.11 18.8725 159.257 18.3581 159.257 17.8017C159.257 16.9095 158.897 16.2061 158.179 15.6917C157.461 15.1669 156.353 14.9044 154.856 14.9044C154.198 14.9044 153.505 14.9517 152.777 15.0461C152.049 15.1301 151.31 15.2246 150.562 15.3296C149.823 15.4346 149.09 15.5343 148.361 15.6288C147.643 15.7127 146.965 15.7547 146.328 15.7547C145.266 15.7547 144.244 15.613 143.263 15.3296C142.292 15.0461 141.427 14.621 140.668 14.0541C139.919 13.4873 139.323 12.7787 138.877 11.9284C138.432 11.0781 138.21 10.0861 138.21 8.95234C138.21 8.2805 138.296 7.61391 138.468 6.95257C138.65 6.29122 138.933 5.66137 139.318 5.06302C139.712 4.45416 140.218 3.89254 140.835 3.37817C141.452 2.85329 142.196 2.4019 143.066 2.02399C143.946 1.64608 144.957 1.35215 146.1 1.1422C147.254 0.921747 148.564 0.811523 150.031 0.811523C151.093 0.811523 152.16 0.874509 153.232 1.00048C154.305 1.11595 155.347 1.28391 156.358 1.50436C157.38 1.72481 158.361 1.99249 159.302 2.30742C160.243 2.61185 161.118 2.95302 161.927 3.33093L159.818 7.36197C159.15 7.05754 158.432 6.77936 157.663 6.52742C156.894 6.26498 156.09 6.03928 155.251 5.85033C154.411 5.66137 153.541 5.51441 152.641 5.40943C151.75 5.29396 150.84 5.23622 149.909 5.23622C148.584 5.23622 147.491 5.33595 146.632 5.5354C145.782 5.73486 145.104 5.99205 144.598 6.30697C144.092 6.6114 143.738 6.95782 143.536 7.34622C143.344 7.72413 143.248 8.10205 143.248 8.47996C143.248 9.21478 143.566 9.81839 144.204 10.2908C144.841 10.7527 145.812 10.9836 147.117 10.9836C147.643 10.9836 148.245 10.9469 148.923 10.8734C149.611 10.7894 150.329 10.7002 151.078 10.6057C151.836 10.5112 152.605 10.4272 153.384 10.3538C154.173 10.2698 154.937 10.2278 155.675 10.2278C157.071 10.2278 158.306 10.3905 159.378 10.7159C160.46 11.0413 161.366 11.5085 162.094 12.1173C162.823 12.7157 163.374 13.4453 163.748 14.3061C164.122 15.1564 164.31 16.1116 164.31 17.1719C164.31 18.5891 163.991 19.854 163.354 20.9667C162.726 22.069 161.826 23.0033 160.653 23.7696C159.489 24.5254 158.083 25.1028 156.434 25.5017C154.785 25.8901 152.949 26.0843 150.926 26.0843C149.591 26.0843 148.286 25.9951 147.011 25.8166C145.736 25.6486 144.512 25.4072 143.339 25.0923C142.175 24.7668 141.063 24.3837 140 23.9428C138.948 23.4914 137.972 22.998 137.072 22.4626L139.636 18.4159Z" fill="#FF1842"/>
<path d="M166.514 20.3654C166.689 19.4917 167.032 18.7315 167.543 18.0848C168.055 17.4381 168.729 16.9305 169.567 16.5623C170.407 16.1837 171.402 15.9639 172.55 15.9029C173.711 15.8335 175.021 15.9435 176.482 16.2329C177.565 16.4474 178.686 16.755 179.846 17.1557C181.015 17.5583 182.202 18.0552 183.406 18.6463C183.472 18.0609 183.408 17.498 183.217 16.9579C183.027 16.4074 182.709 15.9062 182.262 15.4544C181.827 14.9942 181.266 14.5947 180.58 14.2557C179.904 13.9187 179.108 13.6596 178.194 13.4785C177.697 13.3801 177.145 13.3027 176.536 13.2463C175.928 13.1898 175.293 13.1603 174.632 13.1577C173.972 13.1551 173.31 13.1843 172.647 13.2453C171.994 13.3083 171.374 13.4151 170.786 13.5658L170.193 9.55341C170.908 9.43859 171.663 9.35318 172.46 9.29719C173.266 9.24317 174.081 9.22294 174.904 9.2365C175.73 9.23978 176.549 9.27903 177.36 9.35426C178.171 9.4295 178.95 9.54092 179.695 9.68855C182.984 10.34 185.255 11.6928 186.508 13.7469C187.761 15.8009 188.029 18.6216 187.312 22.209L185.729 30.1341L181.317 29.2602L181.659 27.5487C181.147 27.7357 180.592 27.8985 179.997 28.0369C179.411 28.1773 178.781 28.277 178.108 28.3361C177.436 28.3951 176.721 28.4032 175.965 28.3604C175.217 28.3297 174.436 28.2337 173.621 28.0723C172.25 27.8007 171.073 27.4074 170.092 26.8923C169.12 26.3793 168.34 25.7814 167.754 25.0989C167.167 24.4163 166.768 23.6747 166.556 22.874C166.356 22.065 166.342 21.2288 166.514 20.3654ZM171.196 21.1324C171.136 21.4305 171.153 21.733 171.247 22.0401C171.342 22.3369 171.533 22.6257 171.817 22.9065C172.104 23.177 172.488 23.4293 172.968 23.6633C173.46 23.889 174.069 24.0737 174.794 24.2174C175.569 24.3709 176.334 24.4476 177.088 24.4473C177.842 24.4471 178.556 24.3908 179.229 24.2784C179.902 24.166 180.523 24.0058 181.091 23.7978C181.66 23.5898 182.146 23.3548 182.549 23.0928L182.709 22.291C182.073 21.9619 181.435 21.6646 180.796 21.3991C180.167 21.1355 179.556 20.9077 178.964 20.7157C178.385 20.5154 177.829 20.3467 177.299 20.2095C176.779 20.0744 176.32 19.9674 175.922 19.8887C175.097 19.7253 174.4 19.6461 173.831 19.6509C173.262 19.6557 172.789 19.7223 172.412 19.8507C172.038 19.9688 171.755 20.1425 171.564 20.3719C171.374 20.6014 171.251 20.8548 171.196 21.1324Z" fill="#FF1842"/>
<path d="M196.921 15.2935L201.095 17.0152L200.493 18.4609C201.871 18.2727 203.117 18.256 204.231 18.4107C205.355 18.5692 206.401 18.8482 207.369 19.2476C208.638 19.7711 209.733 20.4485 210.654 21.28C211.579 22.1018 212.279 23.0515 212.756 24.129C213.233 25.2064 213.458 26.4001 213.431 27.71C213.417 29.0142 213.104 30.4036 212.49 31.8782L209.003 40.2633L204.843 38.5474L208.042 30.8563C208.431 29.9214 208.646 29.0334 208.687 28.1923C208.742 27.3455 208.629 26.5707 208.349 25.8679C208.082 25.1593 207.655 24.5314 207.067 23.9842C206.493 23.4313 205.779 22.9784 204.923 22.6255C204.472 22.4394 203.987 22.2957 203.467 22.1943C202.957 22.0968 202.434 22.0446 201.897 22.0377C201.373 22.0251 200.844 22.0664 200.309 22.1618C199.777 22.2475 199.268 22.3873 198.78 22.5812L193.999 34.0745L189.825 32.3528L196.921 15.2935Z" fill="#FF1842"/>
<path d="M213.205 46.121C213.567 46.6106 213.957 47.0757 214.375 47.5164C214.788 47.9656 215.202 48.3777 215.615 48.7526C216.032 49.1418 216.444 49.491 216.853 49.8001C217.255 50.1179 217.623 50.3873 217.955 50.6083C218.96 51.2769 219.916 51.7328 220.825 51.976C221.736 52.2334 222.577 52.3197 223.349 52.2348C224.129 52.1556 224.827 51.9225 225.444 51.5354C226.055 51.157 226.566 50.662 226.976 50.0503L227.419 49.3913C226.945 49.3999 226.421 49.3632 225.848 49.2809C225.275 49.1987 224.677 49.0623 224.053 48.8717C223.43 48.6811 222.792 48.4377 222.141 48.1415C221.499 47.851 220.866 47.4989 220.245 47.0852C219.01 46.2636 217.993 45.3191 217.194 44.2517C216.401 43.1757 215.847 42.0467 215.531 40.8647C215.221 39.6742 215.167 38.4606 215.369 37.224C215.579 35.993 216.071 34.8003 216.846 33.6459C217.638 32.4657 218.58 31.5476 219.673 30.8916C220.772 30.2271 221.946 29.818 223.194 29.6644C224.451 29.5164 225.749 29.6199 227.088 29.9747C228.426 30.3296 229.734 30.932 231.012 31.7819C231.557 32.1446 232.075 32.5389 232.565 32.9648C233.055 33.3907 233.502 33.8254 233.907 34.269C234.32 34.7183 234.681 35.1707 234.992 35.6263C235.316 36.079 235.578 36.5149 235.777 36.934L236.514 35.8356L240.295 38.3515L231.234 51.8554C230.304 53.2425 229.271 54.3313 228.137 55.1219C227.003 55.9125 225.789 56.4004 224.494 56.5858C223.202 56.7854 221.836 56.6738 220.395 56.251C218.949 55.8367 217.455 55.1168 215.913 54.0912C215.36 53.7229 214.802 53.3146 214.241 52.8662C213.674 52.4265 213.12 51.9581 212.579 51.461C212.04 50.9782 211.521 50.4767 211.02 49.9565C210.522 49.4506 210.059 48.9373 209.633 48.4166L213.205 46.121ZM220.845 36.2505C220.434 36.8622 220.166 37.5187 220.04 38.2201C219.929 38.9186 219.963 39.6204 220.143 40.3256C220.328 41.0222 220.662 41.6993 221.145 42.3569C221.633 43.0059 222.278 43.5967 223.078 44.1293C223.598 44.4749 224.145 44.7704 224.719 45.0156C225.308 45.2579 225.897 45.4444 226.487 45.5751C227.085 45.7115 227.676 45.7865 228.258 45.8C228.848 45.8192 229.404 45.7714 229.924 45.6567L233.297 40.6298C233.122 40.0647 232.894 39.5328 232.613 39.0341C232.331 38.5354 232.016 38.0698 231.665 37.6373C231.315 37.2048 230.934 36.8083 230.523 36.4477C230.118 36.0784 229.703 35.7522 229.277 35.4688C228.408 34.8909 227.555 34.4915 226.718 34.2708C225.889 34.0558 225.105 33.9949 224.365 34.0881C223.639 34.1784 222.974 34.4085 222.368 34.7783C221.763 35.1481 221.255 35.6388 220.845 36.2505Z" fill="#FF1842"/>
<path d="M238.988 48.8953C239.937 47.9504 240.992 47.2417 242.152 46.7693C243.328 46.2968 244.547 46.0933 245.809 46.1587C247.087 46.2242 248.378 46.5658 249.685 47.1836C250.999 47.8087 252.276 48.7391 253.517 49.9747C254.057 50.5126 254.568 51.0868 255.05 51.6973C255.531 52.3079 255.962 52.9257 256.342 53.5508C256.736 54.1759 257.072 54.7937 257.349 55.4043C257.634 56.0076 257.842 56.5709 257.973 57.0942L254.032 58.0318C253.652 56.9997 253.221 56.0911 252.74 55.3061C252.265 54.5284 251.703 53.8161 251.054 53.1692C250.309 52.4278 249.543 51.8609 248.754 51.4684C247.973 51.0686 247.2 50.836 246.433 50.7706C245.682 50.7052 244.959 50.7997 244.266 51.0541C243.587 51.3085 242.97 51.7119 242.415 52.2643C241.86 52.8167 241.459 53.4418 241.211 54.1396C240.977 54.8373 240.897 55.5642 240.97 56.3201C241.058 57.076 241.298 57.8465 241.693 58.6315C242.101 59.4165 242.671 60.1724 243.401 60.8993C244.203 61.6988 245.072 62.3384 246.006 62.8181C246.948 63.3051 247.915 63.6649 248.908 63.8975L247.966 67.8225C247.346 67.6699 246.707 67.47 246.05 67.2228C245.4 66.9684 244.744 66.6559 244.079 66.2852C243.422 65.9218 242.769 65.4966 242.12 65.0096C241.47 64.5371 240.842 63.9993 240.236 63.396C239.003 62.1676 238.065 60.8993 237.423 59.5909C236.78 58.2826 236.415 56.9961 236.328 55.7314C236.248 54.4594 236.43 53.2383 236.875 52.068C237.328 50.9051 238.032 49.8475 238.988 48.8953Z" fill="#FF1842"/>
<path d="M270.687 59.7389L273.253 63.5639L265.998 68.3917C266.969 68.9039 267.913 69.566 268.827 70.3781C269.747 71.1989 270.572 72.152 271.3 73.2375C272.144 74.4953 272.718 75.7456 273.022 76.9886C273.332 78.2402 273.377 79.4444 273.155 80.6012C272.942 81.7523 272.47 82.8389 271.739 83.861C271.014 84.8917 270.039 85.815 268.813 86.631L261.404 91.5607L258.846 87.7486L266.101 82.9209C266.817 82.4449 267.39 81.8951 267.822 81.2715C268.262 80.6423 268.544 79.962 268.67 79.2307C268.795 78.4994 268.756 77.7342 268.552 76.9351C268.363 76.1389 267.996 75.3359 267.453 74.5261C266.8 73.5526 266.04 72.7501 265.172 72.1184C264.305 71.4867 263.426 71.0123 262.536 70.695L252.074 77.6562L249.508 73.8311L270.687 59.7389Z" fill="#FF1842"/>
<path d="M270.693 89.1593C271.821 88.694 272.996 88.4861 274.217 88.5357C275.447 88.5815 276.642 88.8848 277.8 89.4458C278.959 90.0068 280.04 90.8312 281.043 91.9192C282.05 93.0168 282.894 94.3849 283.576 96.0233C284.253 97.6522 284.623 99.216 284.685 100.715C284.76 102.22 284.572 103.596 284.122 104.843C283.676 106.1 282.993 107.2 282.075 108.143C281.161 109.096 280.064 109.836 278.786 110.364C278.626 110.429 278.45 110.496 278.258 110.564C278.08 110.638 277.911 110.696 277.753 110.739L271.042 94.6049C270.62 94.9935 270.286 95.4755 270.041 96.0509C269.799 96.636 269.657 97.299 269.612 98.0399C269.568 98.7808 269.63 99.591 269.797 100.47C269.974 101.346 270.267 102.275 270.676 103.258C271.085 104.241 271.591 105.179 272.193 106.071C272.805 106.959 273.45 107.782 274.129 108.541L271.544 111.301C271.057 110.847 270.595 110.372 270.157 109.875C269.733 109.384 269.324 108.852 268.932 108.28C268.553 107.713 268.189 107.102 267.838 106.444C267.492 105.797 267.162 105.097 266.85 104.345C266.052 102.428 265.578 100.653 265.428 99.0208C265.278 97.3889 265.39 95.9254 265.766 94.6301C266.141 93.3348 266.753 92.2242 267.601 91.2984C268.45 90.3726 269.48 89.6595 270.693 89.1593ZM279.14 104.899C279.536 104.555 279.864 104.138 280.122 103.647C280.394 103.162 280.576 102.619 280.667 102.017C280.767 101.411 280.77 100.755 280.674 100.049C280.579 99.3429 280.373 98.6093 280.056 97.8479C279.719 97.0383 279.323 96.3378 278.868 95.7465C278.413 95.1551 277.931 94.6709 277.421 94.2938C276.912 93.9167 276.39 93.6409 275.855 93.4664C275.324 93.3016 274.805 93.2332 274.299 93.2613L279.14 104.899Z" fill="#FF1842"/>
<path d="M279.578 113.675C280.84 113.425 282.075 113.453 283.283 113.759C284.492 114.075 285.607 114.64 286.627 115.453C287.649 116.276 288.537 117.335 289.291 118.628C290.047 119.931 290.599 121.452 290.946 123.189C291.293 124.926 291.366 126.535 291.167 128.018C290.969 129.51 290.555 130.826 289.925 131.966C289.298 133.116 288.485 134.063 287.486 134.805C286.49 135.558 285.361 136.06 284.099 136.31C282.837 136.56 281.601 136.527 280.392 136.211C279.184 135.905 278.069 135.34 277.047 134.517C276.027 133.704 275.139 132.646 274.383 131.342C273.629 130.049 273.079 128.534 272.732 126.797C272.385 125.059 272.31 123.445 272.508 121.952C272.707 120.47 273.121 119.154 273.749 118.004C274.379 116.864 275.192 115.917 276.188 115.164C277.186 114.422 278.316 113.925 279.578 113.675ZM280.536 118.471C279.83 118.61 279.188 118.887 278.61 119.301C278.043 119.723 277.572 120.26 277.196 120.911C276.832 121.571 276.586 122.33 276.458 123.189C276.342 124.056 276.387 125.004 276.592 126.032C276.797 127.06 277.119 127.947 277.558 128.694C278.008 129.449 278.527 130.056 279.115 130.517C279.715 130.986 280.356 131.302 281.04 131.466C281.735 131.638 282.436 131.654 283.141 131.515C283.847 131.375 284.488 131.093 285.064 130.669C285.643 130.255 286.114 129.718 286.478 129.059C286.854 128.407 287.1 127.648 287.216 126.781C287.344 125.922 287.305 124.978 287.1 123.95C286.895 122.923 286.567 122.031 286.117 121.276C285.678 120.529 285.159 119.922 284.559 119.453C283.971 118.992 283.33 118.676 282.634 118.504C281.941 118.342 281.241 118.331 280.536 118.471Z" fill="#FF1842"/>
<path d="M300.698 148.623V153.284H275.524V148.623H300.698Z" fill="#FF1842"/>
<path d="M292.173 199.623L290.267 204.206L278.859 199.5L285.306 216.133L282.864 222.003L276.975 206.532L260.824 212.911L263.362 206.811L275.23 201.95L273.458 197.273L268.227 195.115L270.133 190.532L292.173 199.623Z" fill="#3AF8D6"/>
<path d="M271.93 231.617C272.184 231.238 272.467 230.927 272.777 230.685C273.09 230.457 273.408 230.295 273.731 230.199C274.063 230.108 274.389 230.082 274.708 230.12C275.03 230.172 275.328 230.289 275.6 230.47C275.881 230.657 276.103 230.886 276.267 231.157C276.433 231.441 276.533 231.751 276.567 232.085C276.602 232.42 276.569 232.772 276.468 233.141C276.371 233.525 276.195 233.907 275.941 234.286C275.681 234.673 275.394 234.981 275.081 235.209C274.771 235.451 274.454 235.62 274.131 235.717C273.807 235.813 273.485 235.835 273.163 235.783C272.843 235.745 272.543 235.632 272.262 235.445C271.989 235.264 271.77 235.031 271.604 234.746C271.441 234.475 271.338 234.17 271.295 233.83C271.261 233.495 271.292 233.136 271.39 232.753C271.49 232.383 271.67 232.004 271.93 231.617ZM271.157 228.336L268.59 232.161L253.517 222.131L256.084 218.306L271.157 228.336Z" fill="#3AF8D6"/>
<path d="M264.706 240.363L261.465 243.59L260.37 242.5C260.057 243.801 259.611 244.928 259.035 245.88C258.458 246.847 257.801 247.697 257.064 248.431C256.035 249.456 254.925 250.234 253.736 250.764C252.546 251.295 251.312 251.535 250.035 251.484C249.926 252.32 249.765 253.09 249.553 253.795C249.349 254.508 249.094 255.169 248.787 255.78C248.488 256.397 248.134 256.975 247.725 257.513C247.324 258.058 246.871 258.582 246.367 259.083C245.309 260.137 244.203 260.948 243.05 261.514C241.904 262.089 240.744 262.394 239.568 262.43C238.386 262.474 237.204 262.234 236.021 261.711C234.839 261.202 233.689 260.392 232.572 259.279L226.222 252.956L229.452 249.74L235.277 255.54C235.985 256.245 236.718 256.772 237.477 257.121C238.236 257.484 238.988 257.673 239.733 257.688C240.477 257.717 241.2 257.579 241.9 257.273C242.601 256.983 243.251 256.539 243.849 255.943C244.178 255.616 244.481 255.249 244.758 254.842C245.043 254.442 245.284 254.013 245.481 253.555C245.67 253.105 245.805 252.636 245.886 252.149C245.973 251.669 245.988 251.19 245.929 250.71L237.204 242.02L240.433 238.804L246.258 244.604C246.966 245.309 247.699 245.836 248.459 246.185C249.218 246.549 249.969 246.738 250.714 246.752C251.458 246.781 252.185 246.639 252.893 246.327C253.601 246.029 254.258 245.578 254.863 244.975C255.236 244.604 255.571 244.19 255.871 243.732C256.17 243.289 256.425 242.824 256.637 242.337C256.841 241.857 256.998 241.366 257.108 240.865C257.21 240.37 257.257 239.88 257.25 239.393L248.546 230.725L251.787 227.498L264.706 240.363Z" fill="#3AF8D6"/>
<path d="M201.798 276.198C202.493 275.911 203.159 275.749 203.794 275.713C204.432 275.687 205.015 275.763 205.54 275.941C206.066 276.12 206.531 276.391 206.936 276.754C207.331 277.122 207.637 277.566 207.854 278.087C208.07 278.607 208.169 279.137 208.151 279.675C208.127 280.227 207.992 280.751 207.747 281.247C207.506 281.753 207.148 282.217 206.674 282.638C206.199 283.06 205.614 283.414 204.919 283.701C204.223 283.988 203.563 284.147 202.937 284.18C202.302 284.216 201.72 284.14 201.19 283.952C200.665 283.773 200.202 283.496 199.803 283.118C199.408 282.751 199.102 282.306 198.885 281.786C198.669 281.266 198.57 280.736 198.588 280.198C198.607 279.66 198.738 279.142 198.983 278.646C199.228 278.15 199.586 277.686 200.057 277.255C200.522 276.837 201.102 276.485 201.798 276.198Z" fill="white"/>
<path d="M168.736 300.812H163.486L157.052 284.924L155.565 281.081L154.397 284.924L152.03 290.718L156.294 300.812H151.347L149.602 296.009L147.978 300.812H143.031L147.295 290.718L144.882 284.798L143.426 281.081L142.303 284.861L135.839 300.812H130.588L141.059 276.2H145.823L147.932 281.081L149.647 285.821L151.362 281.081L153.501 276.2H158.266L168.736 300.812Z" fill="#FF1842"/>
<path d="M135.154 285.185C134.908 286.418 134.429 287.547 133.719 288.571C133.006 289.605 132.106 290.463 131.02 291.146C129.933 291.828 128.677 292.295 127.253 292.547C125.819 292.798 124.257 292.755 122.568 292.421C120.889 292.088 119.431 291.527 118.194 290.737C116.945 289.955 115.944 289.02 115.191 287.93C114.427 286.839 113.919 285.632 113.667 284.31C113.405 282.987 113.413 281.626 113.692 280.228C113.727 280.053 113.77 279.864 113.821 279.661C113.86 279.465 113.906 279.287 113.959 279.127L130.593 282.422C130.513 281.84 130.309 281.281 129.982 280.746C129.645 280.209 129.192 279.713 128.622 279.258C128.051 278.803 127.367 278.401 126.57 278.05C125.77 277.71 124.863 277.44 123.85 277.239C122.836 277.038 121.806 276.947 120.759 276.964C119.71 276.991 118.695 277.084 117.713 277.242L116.919 273.462C117.55 273.299 118.186 273.168 118.825 273.07C119.453 272.981 120.104 272.928 120.778 272.912C121.441 272.904 122.132 272.935 122.852 273.002C123.562 273.068 124.304 273.178 125.079 273.331C127.057 273.723 128.742 274.313 130.134 275.102C131.525 275.89 132.638 276.811 133.471 277.863C134.304 278.915 134.859 280.066 135.136 281.318C135.413 282.57 135.419 283.859 135.154 285.185ZM117.883 283.607C117.941 284.142 118.096 284.659 118.348 285.157C118.587 285.664 118.924 286.126 119.357 286.543C119.788 286.971 120.313 287.342 120.932 287.657C121.551 287.972 122.253 288.207 123.038 288.362C123.872 288.528 124.652 288.581 125.377 288.521C126.101 288.462 126.755 288.319 127.337 288.092C127.92 287.866 128.428 287.571 128.862 287.208C129.286 286.843 129.626 286.435 129.881 285.983L117.883 283.607Z" fill="#FF1842"/>
<path d="M101.581 293.564L97.4073 291.842L100.955 283.312C100.48 283.421 99.9456 283.489 99.3511 283.514C98.7567 283.54 98.1366 283.522 97.491 283.459C96.8454 283.395 96.1971 283.286 95.5459 283.13C94.8908 282.984 94.2577 282.785 93.6466 282.533C92.2365 281.952 91.0322 281.206 90.0335 280.298C89.0254 279.385 88.2586 278.369 87.7332 277.249C87.2079 276.129 86.9347 274.932 86.9137 273.659C86.8792 272.391 87.1326 271.107 87.6738 269.806C88.2391 268.447 88.9993 267.32 89.9546 266.427C90.9058 265.544 91.9857 264.894 93.194 264.478C94.389 264.067 95.6811 263.9 97.0702 263.976C98.4458 264.058 99.8387 264.39 101.249 264.972C101.85 265.22 102.431 265.504 102.992 265.826C103.542 266.143 104.062 266.482 104.551 266.842C105.031 267.198 105.473 267.566 105.876 267.947C106.266 268.334 106.598 268.714 106.872 269.086L107.383 267.858L111.557 269.579L101.581 293.564ZM105.152 273.221C104.874 272.7 104.549 272.222 104.18 271.787C103.81 271.352 103.413 270.957 102.988 270.601C102.563 270.245 102.118 269.926 101.652 269.643C101.181 269.37 100.711 269.137 100.241 268.943C99.2824 268.547 98.3776 268.326 97.5267 268.28C96.6624 268.24 95.8801 268.346 95.1801 268.6C94.4706 268.849 93.8494 269.231 93.3162 269.745C92.783 270.259 92.3639 270.882 92.0592 271.614C91.7746 272.299 91.6423 273.001 91.6624 273.72C91.673 274.436 91.8381 275.125 92.1573 275.788C92.4631 276.456 92.919 277.067 93.5252 277.622C94.118 278.183 94.8563 278.645 95.7399 279.01C96.304 279.243 96.8922 279.417 97.5043 279.534C98.1125 279.661 98.7218 279.732 99.3324 279.747C99.9336 279.757 100.525 279.713 101.106 279.614C101.677 279.511 102.206 279.351 102.693 279.134L105.152 273.221Z" fill="#FF1842"/>
<path d="M52.4448 264.403L46.1713 258.156C44.3393 256.332 42.9452 254.551 41.989 252.814C41.0328 251.076 40.4818 249.401 40.3358 247.787C40.1752 246.174 40.4051 244.629 41.0255 243.154C41.6313 241.678 42.5875 240.29 43.894 238.989C45.1348 237.753 46.4998 236.823 47.9887 236.198C49.4704 235.58 51.0397 235.326 52.6966 235.435C54.3461 235.551 56.065 236.063 57.8533 236.972C59.6342 237.888 61.4407 239.258 63.2728 241.082L69.5572 247.362L52.4448 264.403ZM59.4299 243.252C58.3934 242.22 57.3533 241.446 56.3096 240.93C55.2585 240.421 54.2294 240.152 53.2221 240.123C52.2075 240.086 51.2222 240.283 50.266 240.712C49.3098 241.14 48.4048 241.78 47.5508 242.63C46.7114 243.466 46.0874 244.349 45.6786 245.28C45.2626 246.217 45.0838 247.181 45.1421 248.169C45.1859 249.158 45.4706 250.168 45.9961 251.2C46.5216 252.232 47.3026 253.264 48.3391 254.296L51.9959 257.938L63.0866 246.893L59.4299 243.252Z" fill="#3AF8D6"/>
<path d="M45.3208 234.675C44.2989 235.355 43.1822 235.793 41.9707 235.988C40.7507 236.189 39.5172 236.132 38.27 235.815C37.0229 235.499 35.802 234.909 34.6074 234.047C33.4071 233.175 32.3155 232.008 31.3329 230.543C30.356 229.087 29.6945 227.633 29.3484 226.181C28.9881 224.726 28.9109 223.345 29.117 222.036C29.3172 220.719 29.7795 219.508 30.5039 218.403C31.2225 217.289 32.1608 216.347 33.319 215.577C33.4638 215.48 33.6242 215.38 33.8003 215.275C33.9621 215.167 34.1169 215.077 34.2647 215.003L43.9412 229.425C44.2827 228.961 44.5194 228.423 44.6514 227.812C44.7775 227.192 44.7919 226.516 44.6944 225.783C44.597 225.051 44.3821 224.272 44.0498 223.446C43.7091 222.626 43.2439 221.777 42.6542 220.898C42.0646 220.019 41.3885 219.204 40.6258 218.453C39.8547 217.708 39.0627 217.032 38.2498 216.426L40.2697 213.213C40.8348 213.56 41.3803 213.932 41.9059 214.33C42.4173 214.725 42.9205 215.163 43.4154 215.644C43.8961 216.121 44.3714 216.646 44.8414 217.218C45.3057 217.782 45.7632 218.399 46.2141 219.071C47.3644 220.786 48.1687 222.425 48.627 223.989C49.0853 225.553 49.253 227.006 49.13 228.346C49.007 229.686 48.616 230.894 47.9571 231.968C47.2981 233.042 46.4193 233.944 45.3208 234.675ZM34.0106 220.986C33.6858 221.401 33.4428 221.874 33.2817 222.405C33.1063 222.933 33.0311 223.5 33.0561 224.107C33.0726 224.719 33.195 225.36 33.4232 226.031C33.6514 226.701 33.9939 227.377 34.4505 228.057C34.9361 228.781 35.4592 229.386 36.0198 229.873C36.5805 230.36 37.1474 230.737 37.7205 231.003C38.2936 231.27 38.8601 231.435 39.4201 231.498C39.9743 231.553 40.4977 231.517 40.9905 231.388L34.0106 220.986Z" fill="#3AF8D6"/>
<path d="M22.1002 215.41L20.0376 210.451L28.2033 201.883L30.5283 199.569L27.2411 199.57L15.3832 199.261L13.3206 194.302L33.3355 195.515L35.3921 200.459L22.1002 215.41Z" fill="#3AF8D6"/>
<path d="M21.7373 188.166C20.5449 188.403 19.3569 188.376 18.1731 188.087C16.9795 187.8 15.8709 187.266 14.8473 186.486C13.8237 185.705 12.927 184.681 12.157 183.412C11.3851 182.133 10.8246 180.62 10.4755 178.873C10.1285 177.135 10.0698 175.523 10.2994 174.035C10.517 172.538 10.9666 171.221 11.648 170.081C12.3274 168.931 13.207 167.982 14.2868 167.234C15.3646 166.476 16.5791 165.963 17.9305 165.695C18.0995 165.662 18.2843 165.63 18.4851 165.601C18.6739 165.564 18.8499 165.54 19.013 165.529L22.45 182.736C22.9376 182.436 23.357 182.027 23.7079 181.509C24.0569 180.98 24.3246 180.356 24.5112 179.635C24.6978 178.914 24.7942 178.104 24.8006 177.205C24.7971 176.308 24.6906 175.336 24.4812 174.287C24.2718 173.239 23.959 172.216 23.543 171.219C23.117 170.224 22.6456 169.286 22.1288 168.406L25.1894 166.197C25.5768 166.74 25.9364 167.299 26.2683 167.874C26.5881 168.441 26.8844 169.045 27.1569 169.686C27.4175 170.318 27.6555 170.992 27.8708 171.708C28.0841 172.414 28.2708 173.168 28.4309 173.97C28.8395 176.015 28.9593 177.856 28.7903 179.492C28.6214 181.129 28.2282 182.548 27.6108 183.749C26.9934 184.951 26.1806 185.924 25.1724 186.668C24.1642 187.413 23.0192 187.912 21.7373 188.166ZM16.5277 171.006C16.0736 171.267 15.6728 171.613 15.3253 172.045C14.9658 172.469 14.6833 172.969 14.4779 173.544C14.2626 174.121 14.1333 174.766 14.0899 175.48C14.0466 176.194 14.106 176.957 14.2682 177.769C14.4407 178.632 14.6921 179.4 15.0226 180.072C15.3531 180.743 15.7307 181.315 16.1554 181.787C16.5802 182.258 17.0372 182.633 17.5264 182.91C18.0135 183.176 18.507 183.346 19.0069 183.418L16.5277 171.006Z" fill="#3AF8D6"/>
<path d="M0.698242 153.315V148.654H25.8724V153.315H0.698242Z" fill="#3AF8D6"/>
<path d="M17.2896 136.334C16.0278 136.083 14.8976 135.586 13.8992 134.843C12.9028 134.089 12.0895 133.142 11.4593 132.002C10.8312 130.851 10.4169 129.534 10.2164 128.052C10.018 126.559 10.0917 124.944 10.4378 123.207C10.7838 121.469 11.3335 119.954 12.0868 118.661C12.8422 117.358 13.7295 116.299 14.7487 115.487C15.7699 114.664 16.8842 114.099 18.0915 113.794C19.3008 113.479 20.5364 113.446 21.7982 113.697C23.0601 113.948 24.1892 114.45 25.1856 115.204C26.184 115.947 26.9973 116.894 27.6254 118.045C28.2556 119.185 28.6699 120.502 28.8683 121.995C29.0688 123.477 28.9961 125.087 28.6501 126.825C28.304 128.562 27.7533 130.082 26.9979 131.386C26.2446 132.679 25.3573 133.737 24.3361 134.56C23.3169 135.373 22.2026 135.937 20.9933 136.252C19.786 136.558 18.5514 136.585 17.2896 136.334ZM18.2448 131.538C18.9502 131.679 19.6495 131.668 20.3428 131.506C21.0281 131.333 21.6695 131.016 22.2669 130.558C22.8564 130.087 23.3751 129.48 23.8229 128.735C24.2629 127.978 24.5852 127.086 24.79 126.058C24.9948 125.03 25.0379 124.087 24.9194 123.23C24.793 122.361 24.5466 121.601 24.1803 120.951C23.806 120.289 23.3346 119.752 22.766 119.34C22.1895 118.915 21.5485 118.633 20.8431 118.493C20.1376 118.353 19.4373 118.368 18.742 118.54C18.0488 118.702 17.4074 119.018 16.8179 119.489C16.2205 119.947 15.7018 120.555 15.2618 121.311C14.814 122.056 14.4877 122.942 14.2829 123.97C14.0782 124.998 14.039 125.947 14.1654 126.817C14.2839 127.674 14.5302 128.433 14.9045 129.095C15.2708 129.745 15.7423 130.282 16.3188 130.707C16.8973 131.121 17.5393 131.398 18.2448 131.538Z" fill="#3AF8D6"/>
<path d="M39.5453 110.639L37.7653 114.918L14.3293 105.251L16.1093 100.972L17.6745 101.617C17.577 101.137 17.5217 100.594 17.5086 99.9905C17.4954 99.3866 17.5265 98.7559 17.6019 98.0981C17.6772 97.4404 17.7981 96.7789 17.9647 96.1137C18.1219 95.4445 18.3308 94.7968 18.5913 94.1703C19.1927 92.7246 19.9507 91.4847 20.8655 90.4505C21.7842 89.4067 22.8001 88.6062 23.9129 88.049C25.0258 87.4918 26.2089 87.1894 27.4622 87.1418C28.7101 87.0807 29.9687 87.3119 31.2378 87.8354C32.5633 88.3821 33.6556 89.1319 34.5148 90.0848C35.3646 91.0338 35.9819 92.1183 36.3665 93.3384C36.7457 94.5449 36.8836 95.8552 36.78 97.2691C36.6711 98.6695 36.316 100.093 35.7147 101.538C35.4581 102.155 35.1659 102.752 34.8381 103.328C34.5144 103.894 34.1704 104.43 33.8063 104.935C33.4462 105.43 33.0746 105.886 32.6915 106.304C32.3031 106.708 31.9225 107.054 31.55 107.341L39.5453 110.639ZM27.5171 105.677C28.0359 105.383 28.513 105.043 28.9485 104.659C29.384 104.274 29.7811 103.862 30.14 103.422C30.4989 102.983 30.8222 102.524 31.1099 102.044C31.3881 101.56 31.6275 101.078 31.8279 100.596C32.2369 99.6125 32.4728 98.6879 32.5356 97.8218C32.5931 96.9422 32.5045 96.1491 32.2698 95.4425C32.039 94.7263 31.6762 94.1024 31.1815 93.5709C30.6867 93.0393 30.082 92.6262 29.3676 92.3315C28.7001 92.0562 28.0122 91.9361 27.3037 91.9714C26.5992 91.9969 25.9177 92.1788 25.2594 92.517C24.5957 92.8417 23.9846 93.3179 23.4261 93.9457C22.8622 94.56 22.3919 95.3201 22.015 96.2261C21.7745 96.8044 21.5904 97.4059 21.4626 98.0308C21.3255 98.6517 21.2434 99.2728 21.2163 99.8939C21.1932 100.505 21.2245 101.105 21.3101 101.694C21.3997 102.273 21.5462 102.808 21.7497 103.298L27.5171 105.677Z" fill="#3AF8D6"/>
<path d="M32.7135 86.0521C31.6916 85.3722 30.8582 84.5123 30.2132 83.4725C29.5597 82.4271 29.1411 81.2701 28.9576 80.0015C28.7741 78.733 28.8538 77.3842 29.1968 75.9551C29.5456 74.5173 30.2114 73.0662 31.194 71.6017C32.1709 70.1457 33.2667 68.9807 34.4814 68.1067C35.6933 67.2184 36.9457 66.6187 38.2384 66.3075C39.537 65.9877 40.8374 65.9496 42.1399 66.1931C43.448 66.4281 44.6812 66.9309 45.8394 67.7015C45.9842 67.7978 46.1388 67.9069 46.3033 68.0289C46.4651 68.1365 46.6084 68.2443 46.7331 68.3522L37.0566 82.7737C37.6178 82.9103 38.2071 82.9224 38.8246 82.8099C39.4478 82.6887 40.0807 82.4431 40.7231 82.0731C41.3656 81.7031 42.0062 81.2072 42.6451 80.5856C43.2754 79.9582 43.8854 79.2052 44.475 78.3265C45.0646 77.4478 45.5619 76.5138 45.9669 75.5247C46.3634 74.53 46.687 73.5428 46.9378 72.5632L50.6917 73.1919C50.5864 73.8446 50.4497 74.4888 50.2817 75.1247C50.111 75.7463 49.8974 76.3768 49.6409 77.0161C49.3816 77.6411 49.0766 78.2793 48.7258 78.9306C48.3808 79.5733 47.9828 80.2307 47.532 80.9026C46.3816 82.617 45.1686 83.9843 43.8927 85.0046C42.6169 86.0248 41.3337 86.7349 40.043 87.1347C38.7524 87.5345 37.4828 87.6367 36.2342 87.4415C34.9856 87.2462 33.812 86.7831 32.7135 86.0521ZM41.0857 70.4077C40.576 70.2679 40.044 70.2254 39.4898 70.2804C38.9329 70.321 38.3779 70.4689 37.8249 70.724C37.2633 70.9734 36.7152 71.3314 36.1804 71.798C35.6456 72.2646 35.1499 72.8382 34.6932 73.5188C34.2076 74.2424 33.8463 74.9553 33.6093 75.6574C33.3722 76.3595 33.2397 77.0252 33.2116 77.6545C33.1835 78.2838 33.2472 78.8682 33.4025 79.4077C33.5636 79.9386 33.7981 80.4061 34.1058 80.8103L41.0857 70.4077Z" fill="#3AF8D6"/>
<path d="M45.8434 52.4601L49.0841 49.2329L50.9454 51.0863C51.1278 49.8434 51.4234 48.6332 51.8322 47.4557C52.2409 46.2782 52.7373 45.1952 53.3212 44.2067L57.2407 46.2128C56.1167 47.5793 55.2992 48.953 54.7883 50.334C54.2773 51.7005 54.1204 53.0706 54.3175 54.4444L62.0033 62.0981L58.7625 65.3253L45.8434 52.4601Z" fill="#3AF8D6"/>
<path d="M99.5987 25.7401C98.903 26.027 98.2378 26.1885 97.603 26.2245C96.9641 26.2509 96.3818 26.1749 95.8561 25.9966C95.3304 25.8182 94.8652 25.5471 94.4605 25.1833C94.0653 24.8157 93.7594 24.3716 93.543 23.8511C93.3265 23.3307 93.2274 22.8013 93.2458 22.263C93.2696 21.7112 93.4041 21.1871 93.6492 20.6908C93.8903 20.1849 94.2481 19.7211 94.7225 19.2996C95.197 18.878 95.7821 18.5238 96.4777 18.2368C97.1734 17.9499 97.8339 17.7903 98.4593 17.7582C99.0942 17.7222 99.6764 17.7982 100.206 17.9862C100.732 18.1645 101.194 18.4423 101.594 18.8196C101.989 19.1873 102.295 19.6314 102.511 20.1518C102.728 20.6723 102.827 21.2017 102.808 21.74C102.79 22.2783 102.658 22.7956 102.413 23.2919C102.168 23.7882 101.81 24.252 101.34 24.6831C100.875 25.1008 100.294 25.4531 99.5987 25.7401Z" fill="white"/>
</svg>
