<svg width="80" height="80" viewBox="0 0 80 80" fill="none" xmlns="http://www.w3.org/2000/svg">
<path d="M15 52.5V50H10V52.5C10 57.1413 11.8437 61.5925 15.1256 64.8744C18.4075 68.1563 22.8587 70 27.5 70H35V65H27.5C24.1848 65 21.0054 63.683 18.6612 61.3388C16.317 58.9946 15 55.8152 15 52.5Z" fill="white"/>
<path d="M60 27.5V30H65V27.5C65 22.8587 63.1563 18.4075 59.8744 15.1256C56.5925 11.8437 52.1413 10 47.5 10H40V15H47.5C49.1415 15 50.767 15.3233 52.2835 15.9515C53.8001 16.5797 55.1781 17.5004 56.3388 18.6612C57.4996 19.8219 58.4203 21.1999 59.0485 22.7165C59.6767 24.233 60 25.8585 60 27.5Z" fill="white"/>
<path d="M27.5 27.5H12.5C10.5109 27.5 8.60322 28.2902 7.1967 29.6967C5.79018 31.1032 5 33.0109 5 35V40H10V35C10 34.337 10.2634 33.7011 10.7322 33.2322C11.2011 32.7634 11.837 32.5 12.5 32.5H27.5C28.163 32.5 28.7989 32.7634 29.2678 33.2322C29.7366 33.7011 30 34.337 30 35V40H35V35C35 33.0109 34.2098 31.1032 32.8033 29.6967C31.3968 28.2902 29.4891 27.5 27.5 27.5Z" fill="white"/>
<path d="M20 25C21.9778 25 23.9112 24.4135 25.5557 23.3147C27.2002 22.2159 28.4819 20.6541 29.2388 18.8268C29.9957 16.9996 30.1937 14.9889 29.8079 13.0491C29.422 11.1093 28.4696 9.32746 27.0711 7.92894C25.6725 6.53041 23.8907 5.578 21.9509 5.19215C20.0111 4.8063 18.0004 5.00433 16.1732 5.76121C14.3459 6.51809 12.7841 7.79981 11.6853 9.4443C10.5865 11.0888 10 13.0222 10 15C10 17.6522 11.0536 20.1957 12.9289 22.0711C14.8043 23.9464 17.3478 25 20 25ZM20 10C20.9889 10 21.9556 10.2932 22.7779 10.8427C23.6001 11.3921 24.241 12.173 24.6194 13.0866C24.9978 14.0002 25.0969 15.0056 24.9039 15.9755C24.711 16.9454 24.2348 17.8363 23.5355 18.5355C22.8363 19.2348 21.9454 19.711 20.9755 19.9039C20.0055 20.0969 19.0002 19.9978 18.0866 19.6194C17.173 19.241 16.3921 18.6001 15.8427 17.7779C15.2932 16.9556 15 15.9889 15 15C15 13.6739 15.5268 12.4022 16.4645 11.4645C17.4021 10.5268 18.6739 10 20 10Z" fill="white"/>
<path d="M67.5 62.5H52.5C50.5109 62.5 48.6032 63.2902 47.1967 64.6967C45.7902 66.1032 45 68.0109 45 70V75H50V70C50 69.337 50.2634 68.7011 50.7322 68.2322C51.2011 67.7634 51.837 67.5 52.5 67.5H67.5C68.163 67.5 68.7989 67.7634 69.2678 68.2322C69.7366 68.7011 70 69.337 70 70V75H75V70C75 68.0109 74.2098 66.1032 72.8033 64.6967C71.3968 63.2902 69.4891 62.5 67.5 62.5Z" fill="white"/>
<path d="M50 50C50 51.9778 50.5865 53.9112 51.6853 55.5557C52.7841 57.2002 54.3459 58.4819 56.1732 59.2388C58.0004 59.9957 60.0111 60.1937 61.9509 59.8079C63.8907 59.422 65.6725 58.4696 67.0711 57.0711C68.4696 55.6725 69.422 53.8907 69.8079 51.9509C70.1937 50.0111 69.9957 48.0004 69.2388 46.1732C68.4819 44.3459 67.2002 42.7841 65.5557 41.6853C63.9112 40.5865 61.9778 40 60 40C57.3478 40 54.8043 41.0536 52.9289 42.9289C51.0536 44.8043 50 47.3478 50 50ZM65 50C65 50.9889 64.7068 51.9556 64.1573 52.7779C63.6079 53.6001 62.8271 54.241 61.9134 54.6194C60.9998 54.9978 59.9945 55.0969 59.0245 54.9039C58.0546 54.711 57.1637 54.2348 56.4645 53.5355C55.7652 52.8363 55.289 51.9454 55.0961 50.9755C54.9031 50.0055 55.0022 49.0002 55.3806 48.0866C55.759 47.173 56.3999 46.3921 57.2221 45.8427C58.0444 45.2932 59.0111 45 60 45C61.3261 45 62.5979 45.5268 63.5355 46.4645C64.4732 47.4021 65 48.6739 65 50Z" fill="white"/>
</svg>
