<svg width="80" height="80" viewBox="0 0 80 80" fill="none" xmlns="http://www.w3.org/2000/svg">
<path d="M71.8443 13.3333C71.5414 13.3021 71.2361 13.3021 70.9332 13.3333H8.71098C8.31219 13.3395 7.91604 13.3993 7.5332 13.5111L39.6443 45.4889L71.8443 13.3333Z" fill="white"/>
<path d="M75.1333 16.4222L42.7777 48.6445C41.945 49.4722 40.8185 49.9369 39.6444 49.9369C38.4702 49.9369 37.3438 49.4722 36.511 48.6445L4.44437 16.6667C4.34579 17.029 4.29353 17.4023 4.28882 17.7778V62.2222C4.28882 63.401 4.75707 64.5314 5.59057 65.3649C6.42406 66.1984 7.55452 66.6667 8.73326 66.6667H70.9555C72.1342 66.6667 73.2647 66.1984 74.0982 65.3649C74.9317 64.5314 75.3999 63.401 75.3999 62.2222V17.7778C75.3822 17.3148 75.2923 16.8574 75.1333 16.4222V16.4222ZM11.7777 62.2222H8.68882V59.0445L24.8444 43.0222L27.9777 46.1556L11.7777 62.2222ZM70.911 62.2222H67.7999L51.5999 46.1556L54.7333 43.0222L70.8888 59.0445L70.911 62.2222Z" fill="white"/>
</svg>
