<svg width="80" height="80" viewBox="0 0 80 80" fill="none" xmlns="http://www.w3.org/2000/svg">
<g clip-path="url(#clip0)">
<path d="M74.1675 39.4C74.1648 37.1046 73.4019 34.8748 71.998 33.0589C70.5941 31.2429 68.6282 29.9431 66.4075 29.3625L76.3675 0H27.0175L37.0075 29.4675C34.8521 30.094 32.9575 31.4017 31.6073 33.1949C30.2571 34.9881 29.5239 37.1703 29.5175 39.415C29.5175 42.8925 31.25 45.9775 33.895 47.8775C32.8362 49.3764 31.6274 50.7635 30.2875 52.0175C27.8209 54.3641 24.9372 56.2287 21.785 57.515C18.9975 55.6375 17.8025 52.3175 18.8825 49.365C30.21 45.835 27.71 29.1425 15.8625 29.0925C13.1108 29.0945 10.4724 30.1885 8.52672 32.1342C6.58099 34.0799 5.48701 36.7183 5.48502 39.47C5.48502 42.2975 6.62752 44.8875 8.49252 46.7475C8.32252 47.06 8.16502 47.4 7.99502 47.7375C6.44752 50.94 4.68752 54.5475 4.01252 58.5975C2.67252 66.71 4.87252 73.22 10.185 76.905C13.0568 78.9315 16.4877 80.0149 20.0025 80.005C26.0825 80.005 32.27 76.945 38.245 73.975C42.515 71.8775 46.915 69.6775 51.2375 68.6125C52.84 68.2225 54.5075 67.99 56.265 67.725C59.8325 67.2175 63.5175 66.685 66.825 64.7575C68.7168 63.6764 70.3487 62.194 71.606 60.4145C72.8633 58.635 73.7155 56.6017 74.1025 54.4575C74.6532 51.1911 74.1332 47.8342 72.62 44.8875C73.6225 43.285 74.17 41.425 74.17 39.405L74.1675 39.4ZM69.65 39.4C69.648 40.9463 69.0329 42.4286 67.9395 43.522C66.8462 44.6154 65.3638 45.2305 63.8175 45.2325C58.295 45.22 55.875 38.255 60.2075 34.815L60.22 34.7925C60.4175 34.65 60.6275 34.505 60.82 34.3725C60.82 34.3725 60.86 34.3725 60.86 34.35C60.95 34.2975 61.04 34.2325 61.1325 34.18C61.16 34.18 61.1725 34.1675 61.195 34.1675C61.2875 34.115 61.405 34.0775 61.5225 34.025C61.64 33.9725 61.755 33.935 61.85 33.8825C61.8725 33.8825 61.8875 33.87 61.9125 33.87C62.005 33.8425 62.11 33.7925 62.2 33.78C62.2125 33.78 62.2675 33.7525 62.2925 33.7525C62.41 33.725 62.5 33.7 62.615 33.685H62.6275L62.98 33.6075C63.0025 33.6075 63.0425 33.6075 63.07 33.58C63.16 33.58 63.2525 33.5525 63.3575 33.5525H63.46C63.5775 33.5525 63.6925 33.54 63.8375 33.54H64.1375C64.23 33.54 64.3075 33.54 64.3975 33.5525H64.4375C64.62 33.58 64.815 33.605 64.9975 33.66C66.313 33.939 67.4927 34.6615 68.3392 35.7064C69.1857 36.7513 69.6476 38.0552 69.6475 39.4H69.65ZM33.4775 4.6375H69.91L61.55 29.2975C61.1975 29.365 60.86 29.48 60.5075 29.5975L51.7075 11.655L42.8775 29.4825C42.5193 29.3758 42.1543 29.2932 41.785 29.235L33.4775 4.6375ZM50.04 37.3825C49.6127 35.2447 48.5176 33.2978 46.9125 31.8225L51.705 22.15L56.5475 32.03C55.0666 33.4838 54.0556 35.3483 53.645 37.3825H50.04ZM38.4375 33.7225C38.5449 33.6931 38.6544 33.6722 38.765 33.66H38.8275C38.92 33.6325 39.01 33.6325 39.1 33.6075H39.1925C39.2825 33.6075 39.3625 33.58 39.4525 33.58H40.35C40.4425 33.58 40.52 33.6075 40.5875 33.6075C40.6375 33.6075 40.65 33.6075 40.705 33.635C40.795 33.6625 40.8625 33.6625 40.9525 33.675C40.98 33.675 41.005 33.675 41.055 33.6975L41.3675 33.765H41.395C41.485 33.7925 41.5925 33.8175 41.6825 33.8675C41.695 33.8675 41.7225 33.88 41.7725 33.88C41.84 33.9075 41.93 33.9325 42.01 33.97C42.02 33.97 42.0475 33.9975 42.0725 33.9975C42.1625 34.05 42.255 34.0775 42.345 34.115H42.3725C42.4811 34.155 42.5825 34.2124 42.6725 34.285H42.7C42.79 34.325 42.88 34.3875 42.9725 34.4425C42.995 34.4425 42.995 34.47 43.0225 34.47C43.115 34.51 43.18 34.5875 43.27 34.6275L43.2975 34.655C43.57 34.8625 43.83 35.095 44.095 35.3325L44.105 35.345C45.1475 36.4375 45.7225 37.8825 45.7075 39.3775C45.46 46.905 34.2875 46.905 34.04 39.3775C34.0275 36.71 35.85 34.3775 38.44 33.7275L38.4375 33.7225ZM15.6375 33.5525C17.1864 33.5525 18.6718 34.1678 19.767 35.263C20.8622 36.3582 21.4775 37.8436 21.4775 39.3925C21.4775 40.9414 20.8622 42.4268 19.767 43.522C18.6718 44.6172 17.1864 45.2325 15.6375 45.2325C12.425 45.2325 9.80502 42.615 9.80502 39.4C9.80502 36.185 12.425 33.5525 15.6375 33.5525ZM69.5175 53.6475C69.2512 55.1278 68.6634 56.5316 67.7956 57.7601C66.9278 58.9885 65.8011 60.0117 64.495 60.7575C61.9675 62.215 58.855 62.685 55.6025 63.1375C53.7641 63.3725 51.9385 63.6987 50.1325 64.115C45.315 65.3025 40.68 67.605 36.185 69.8325C30.445 72.685 25.0275 75.365 20.0025 75.365C17.4248 75.3813 14.9082 74.5795 12.815 73.075C7.72252 69.5575 7.97252 62.9575 8.58252 59.3375C9.13002 55.95 10.68 52.7875 12.1625 49.755C12.27 49.5725 12.3325 49.4025 12.425 49.2225C12.9325 49.4025 13.465 49.545 14.025 49.64C13.1375 54.5475 15.6375 59.6275 20.5075 62.1275L21.38 62.58L22.33 62.2425C26.38 60.795 30.1425 58.465 33.45 55.3425C35.2836 53.6362 36.9015 51.7119 38.2675 49.6125C40.808 50.0022 43.4027 49.4367 45.5506 48.0252C47.6985 46.6138 49.2471 44.4565 49.8975 41.97H53.79C54.3656 44.1916 55.6626 46.1592 57.4776 47.5637C59.2925 48.9682 61.5226 49.7302 63.8175 49.73C65.745 49.73 67.5275 49.1975 69.05 48.2975C69.65 50.03 69.8425 51.84 69.5175 53.65V53.6475Z" fill="white"/>
</g>
<defs>
<clipPath id="clip0">
<rect width="80" height="80" fill="white"/>
</clipPath>
</defs>
</svg>
