<svg width="80" height="80" viewBox="0 0 80 80" fill="none" xmlns="http://www.w3.org/2000/svg">
<path d="M20 2.5C20 1.83696 19.7366 1.20107 19.2678 0.732233C18.7989 0.263392 18.163 0 17.5 0C16.837 0 16.2011 0.263392 15.7322 0.732233C15.2634 1.20107 15 1.83696 15 2.5V5H10C7.34784 5 4.8043 6.05357 2.92893 7.92893C1.05357 9.8043 0 12.3478 0 15L0 20H80V15C80 12.3478 78.9464 9.8043 77.0711 7.92893C75.1957 6.05357 72.6522 5 70 5H65V2.5C65 1.83696 64.7366 1.20107 64.2678 0.732233C63.7989 0.263392 63.163 0 62.5 0C61.837 0 61.2011 0.263392 60.7322 0.732233C60.2634 1.20107 60 1.83696 60 2.5V5H20V2.5ZM80 70V25H0V70C0 72.6522 1.05357 75.1957 2.92893 77.0711C4.8043 78.9464 7.34784 80 10 80H70C72.6522 80 75.1957 78.9464 77.0711 77.0711C78.9464 75.1957 80 72.6522 80 70ZM54.27 44.27L39.27 59.27C39.0378 59.5028 38.7619 59.6875 38.4582 59.8136C38.1544 59.9396 37.8288 60.0045 37.5 60.0045C37.1712 60.0045 36.8456 59.9396 36.5418 59.8136C36.2381 59.6875 35.9622 59.5028 35.73 59.27L28.23 51.77C27.7606 51.3006 27.4968 50.6639 27.4968 50C27.4968 49.3361 27.7606 48.6994 28.23 48.23C28.6994 47.7606 29.3361 47.4968 30 47.4968C30.6639 47.4968 31.3006 47.7606 31.77 48.23L37.5 53.965L50.73 40.73C51.1994 40.2606 51.8361 39.9968 52.5 39.9968C53.1639 39.9968 53.8006 40.2606 54.27 40.73C54.7394 41.1994 55.0032 41.8361 55.0032 42.5C55.0032 43.1639 54.7394 43.8006 54.27 44.27Z" fill="white"/>
</svg>
