<svg width="80" height="80" viewBox="0 0 80 80" fill="none" xmlns="http://www.w3.org/2000/svg">
<path d="M64.1656 28.2376C63.3667 27.9646 62.562 27.7105 61.7516 27.4751C61.8859 26.9282 62.0099 26.3782 62.1234 25.8251C63.9516 16.9344 62.7562 9.77193 58.6766 7.41412C54.7703 5.15162 48.3641 7.50943 41.9016 13.1469C41.2661 13.7032 40.6437 14.2761 40.0344 14.8657C39.6281 14.474 39.2115 14.0907 38.7844 13.7157C32.0109 7.68756 25.2219 5.14849 21.1469 7.51412C17.2406 9.78131 16.0797 16.5141 17.725 24.9407C17.8896 25.774 18.0745 26.6037 18.2797 27.4297C17.3459 27.6945 16.42 27.9863 15.5031 28.3047C7.57188 31.0782 2.5 35.4266 2.5 39.936C2.5 44.5954 7.94375 49.2673 16.2141 52.1001C16.8849 52.3282 17.562 52.5402 18.2453 52.736C18.0234 53.6204 17.8271 54.5146 17.6562 55.4188C16.0938 63.7001 17.3125 70.2735 21.2109 72.5266C25.2375 74.8532 31.9922 72.4626 38.5766 66.6969C39.0974 66.2407 39.6182 65.7589 40.1391 65.2516C40.7974 65.8881 41.4745 66.5058 42.1703 67.1048C48.5453 72.6016 54.8406 74.8219 58.7328 72.5626C62.7563 70.2282 64.0641 63.1657 62.3656 54.5735C62.2354 53.9172 62.0854 53.2475 61.9156 52.5641C62.3906 52.4235 62.8557 52.2782 63.3109 52.1282C71.9047 49.2735 77.5031 44.6579 77.5031 39.9407C77.5 35.4094 72.2656 31.0329 64.1656 28.2376ZM44.0094 15.5688C49.5453 10.7391 54.7203 8.83287 57.0797 10.1954C59.5906 11.6469 60.5672 17.5001 58.9891 25.1766C58.8849 25.6766 58.7724 26.1751 58.6516 26.6719C55.3479 25.9205 51.9977 25.3901 48.6234 25.0844C46.6915 22.3014 44.5736 19.6522 42.2844 17.1547C42.8448 16.611 43.4188 16.0823 44.0063 15.5688H44.0094ZM24.6453 43.7891C25.3234 45.1016 26.0323 46.398 26.7719 47.6782C27.525 48.9844 28.3099 50.2714 29.1266 51.5391C26.8048 51.2867 24.4976 50.9149 22.2141 50.4251C22.8766 48.2813 23.6922 46.0547 24.6453 43.7891ZM24.6453 36.2376C23.7078 34.0204 22.9141 31.8391 22.2625 29.7329C24.4031 29.2532 26.6844 28.861 29.0625 28.5641C28.2656 29.8079 27.499 31.0698 26.7625 32.3501C26.026 33.6303 25.3188 34.9261 24.6406 36.2376H24.6453ZM26.3484 40.0141C27.3359 37.9547 28.3995 35.935 29.5391 33.9547C30.6776 31.9756 31.8896 30.0417 33.175 28.1532C35.4062 27.9844 37.6937 27.8954 40.0047 27.8954C42.3156 27.8954 44.6172 27.9844 46.8469 28.1547C48.1188 30.0391 49.3234 31.9662 50.4609 33.936C51.5984 35.9058 52.676 37.9162 53.6938 39.9672C52.6896 42.0339 51.6146 44.062 50.4688 46.0516C49.3323 48.0308 48.1344 49.9704 46.875 51.8704C44.6484 52.0266 42.3438 52.1126 40 52.1126C37.6562 52.1126 35.3953 52.0391 33.2094 51.8969C31.9146 50.0021 30.6927 48.06 29.5438 46.0704C28.3948 44.0808 27.3281 42.062 26.3438 40.0141H26.3484ZM53.2422 47.6563C53.9974 46.3459 54.7224 45.0183 55.4172 43.6735C56.3696 45.833 57.2103 48.0401 57.9359 50.286C55.6256 50.8062 53.2896 51.2052 50.9375 51.4813C51.7313 50.2219 52.4995 48.9469 53.2422 47.6563ZM55.3859 36.2391C54.6943 34.9214 53.975 33.6193 53.2281 32.3329C52.499 31.0641 51.7391 29.811 50.9484 28.5735C53.3406 28.8766 55.6359 29.2797 57.7875 29.7719C57.0957 31.9665 56.2942 34.125 55.3859 36.2391ZM40.0359 19.4501C41.5962 21.1549 43.0694 22.9374 44.45 24.7907C41.4969 24.6501 38.5417 24.6501 35.5844 24.7907C37.0422 22.8626 38.5344 21.0735 40.0359 19.4501ZM22.7594 10.2907C25.2688 8.83443 30.8172 10.9157 36.6656 16.1141C37.0391 16.4469 37.4156 16.7954 37.7906 17.1563C35.4896 19.6534 33.3568 22.3003 31.4062 25.0797C28.0395 25.3831 24.6959 25.905 21.3969 26.6422C21.2063 25.8756 21.0344 25.1037 20.8813 24.3266C19.4672 17.1032 20.4031 11.6579 22.7594 10.2907ZM19.1016 49.6423C18.4766 49.4641 17.8594 49.2709 17.25 49.0626C13.5938 47.8126 10.5734 46.1813 8.5 44.4047C6.64375 42.8126 5.70312 41.2235 5.70312 39.936C5.70312 37.2001 9.775 33.7094 16.5656 31.3422C17.4187 31.0454 18.2792 30.774 19.1469 30.5282C20.1554 33.7693 21.3768 36.9402 22.8031 40.0204C21.3598 43.1431 20.1233 46.3573 19.1016 49.6423ZM36.4656 64.2782C33.5547 66.8282 30.6391 68.636 28.0688 69.5469C25.7594 70.3641 23.9203 70.3876 22.8094 69.7454C20.4437 68.3782 19.4594 63.0985 20.8016 56.0173C20.9609 55.1839 21.1432 54.3506 21.3484 53.5173C24.6805 54.235 28.0576 54.7252 31.4563 54.9844C33.4259 57.7783 35.5763 60.4403 37.8937 62.9532C37.4281 63.411 36.9516 63.8516 36.4656 64.2782ZM40.125 60.6501C38.6062 59.0079 37.0906 57.1907 35.6125 55.2376C37.049 55.2938 38.5115 55.3219 40 55.3219C41.5281 55.3219 43.0406 55.2891 44.5312 55.2219C43.1557 57.105 41.685 58.9167 40.125 60.6501ZM59.5813 65.1173C59.1344 67.5298 58.2359 69.1391 57.125 69.7829C54.7609 71.1547 49.7062 69.3719 44.2562 64.6704C43.6312 64.1329 43.0063 63.5563 42.3703 62.9516C44.6426 60.4289 46.7427 57.7562 48.6562 54.9516C52.0737 54.6621 55.4672 54.1374 58.8125 53.3813C58.9656 54.0001 59.101 54.6063 59.2188 55.2001C59.9703 58.9969 60.0781 62.4313 59.5813 65.1173ZM62.3 49.0798C61.8906 49.2157 61.4688 49.3469 61.0406 49.4751C59.9916 46.2187 58.7226 43.0374 57.2422 39.9532C58.667 36.9101 59.8864 33.7749 60.8922 30.5688C61.6594 30.7922 62.4047 31.0266 63.1219 31.2751C70.0625 33.6688 74.2969 37.2126 74.2969 39.936C74.2969 42.8422 69.7234 46.6141 62.3 49.0798Z" fill="white"/>
<path d="M40 46.6484C41.3298 46.6527 42.6309 46.2624 43.7387 45.5267C44.8464 44.7911 45.711 43.7433 46.2229 42.516C46.7348 41.2887 46.871 39.9371 46.6142 38.6324C46.3574 37.3276 45.7192 36.1284 44.7805 35.1866C43.8417 34.2447 42.6446 33.6027 41.3407 33.3416C40.0368 33.0806 38.6848 33.2124 37.4558 33.7203C36.2268 34.2282 35.1762 35.0893 34.437 36.1947C33.6977 37.3 33.3031 38.5999 33.3031 39.9297C33.3013 40.8107 33.4731 41.6834 33.8087 42.4979C34.1443 43.3125 34.6372 44.0529 35.2591 44.6769C35.8811 45.3009 36.6199 45.7962 37.4334 46.1345C38.2468 46.4727 39.119 46.6474 40 46.6484Z" fill="white"/>
</svg>
