<svg width="80" height="80" viewBox="0 0 80 80" fill="none" xmlns="http://www.w3.org/2000/svg">
<path d="M54.0467 22.5399L53.7967 23.8432C53.41 26.3132 53.55 27.0199 54.61 27.9366L55.6333 28.7833L54.5733 33.5099C53.94 36.3299 53.1633 38.6932 52.67 39.4699C52.2467 40.1399 51.7533 41.1266 51.6467 41.6566C51.47 42.2899 50.87 42.9266 49.9533 43.4899C49.1433 43.9499 47.5533 45.1833 46.4267 46.1733C45.5267 46.9832 44.9067 47.4799 44.57 47.6932L43.47 48.5632C43.1871 48.9827 42.9743 49.4454 42.84 49.9332C42.7633 50.2899 42.8067 50.5266 42.92 50.6999C43.03 50.8666 43.22 50.9833 43.48 51.0566C43.7878 51.1287 44.1046 51.1546 44.42 51.1332C45.1336 51.0845 45.8398 50.9593 46.5267 50.7599C46.76 50.6966 46.9433 50.6366 47.1033 50.5833C47.35 50.2799 47.92 49.7066 48.93 48.7099C51.61 46.0666 52.6333 44.6199 51.5767 45.0099C51.1867 45.1499 51.3633 44.7966 52.0333 44.0899C53.4467 42.7133 54.2567 40.6332 55.95 34.1099C57.29 28.9599 57.29 28.8866 58.2767 28.8866C58.74 28.8866 60.05 28.9666 60.05 28.9666V22.5399H57.0433H54.0467ZM66.8433 33.0899C66.63 33.0899 66.2767 33.4099 66.0667 33.7632C65.68 34.3966 66.1367 34.7832 71.9567 38.4166C75.4133 40.6066 78.2 42.4732 78.13 42.6166C78.06 42.7199 75.2367 44.5566 71.8533 46.6732C65.7133 50.4799 65.68 50.5166 66.2433 51.2932C66.95 52.2099 66.2433 52.5266 74.2133 47.5532L80 43.8499V41.0632L73.5433 37.0766C70.0533 34.8899 67.02 33.1266 66.8433 33.0899ZM13.2267 33.4799C13.05 33.4799 10.0167 35.2799 6.52667 37.4299L0 41.4166V44.2032L6.49 48.2599C10.09 50.4799 13.1233 52.3166 13.2633 52.3166C13.4033 52.3166 13.6867 51.9966 13.97 51.6099C14.3933 50.9399 14.0367 50.6566 8.07667 46.8832C2.4 43.3199 1.8 42.8266 2.36667 42.4399C2.72 42.1933 5.4 40.5333 8.29333 38.7366C14.89 34.6799 14.5367 34.9599 14.0067 34.1133C13.7967 33.7633 13.44 33.4466 13.23 33.4799H13.2267ZM42.1733 33.5566C41.2 33.5499 39.1067 35.0332 32.84 40.1499C32.57 40.7932 32.5467 41.2366 32.67 41.5232C32.75 41.7199 32.8967 41.8566 33.1 41.9566C33.3 42.0566 33.56 42.1166 33.8467 42.1399C34.4167 42.1899 35.09 42.0999 35.6333 41.9932L36 41.9099C36.1255 41.7416 36.2903 41.6066 36.48 41.5166C36.8667 41.3032 38.49 39.8232 40.1133 38.2366C42.97 35.3432 43.64 34.0366 42.4767 33.6132C42.3812 33.5753 42.2794 33.556 42.1767 33.5566H42.1733ZM49.4933 35.5666C48.6367 35.5899 47.0933 36.5832 44.45 38.6932C43.1233 39.7699 42.2833 40.3499 41.8333 40.4699L40.0867 41.8499C39.43 43.0499 39.3333 43.7932 39.5067 44.2032C39.55 44.3044 39.613 44.3959 39.692 44.4726C39.7709 44.5493 39.8643 44.6095 39.9667 44.6499C40.2213 44.7505 40.4929 44.8014 40.7667 44.7999C41.4209 44.7929 42.0713 44.6976 42.7 44.5166C43.0277 44.4287 43.3513 44.3263 43.67 44.2099L43.7667 44.1699L43.9433 44.0766C44.2767 43.6466 45.0433 42.8366 46.0033 41.9032C49.0367 38.9766 50.5867 36.8966 50.27 36.1199C50.1267 35.7433 49.88 35.5533 49.4933 35.5666ZM41.4133 39.1666C41.1667 39.1932 40.6133 39.6199 39.6167 40.4932C38.1767 41.7666 36.6067 42.4999 36.0633 42.1733C35.9371 42.2018 35.8104 42.2284 35.6833 42.2532C35.13 42.3632 34.44 42.4532 33.8233 42.4032C33.5328 42.3857 33.248 42.3145 32.9833 42.1932C32.7337 42.0791 32.5345 41.8775 32.4233 41.6266C32.3 41.3266 32.3 40.9532 32.44 40.4766L30.2733 42.2566L25.37 46.3132V52.8899L41.4367 40.2332C41.4335 40.0947 41.4515 39.9564 41.49 39.8232C41.6133 39.3766 41.6067 39.1499 41.4133 39.1699V39.1666ZM48.3267 41.2966C48.0833 41.2966 47.6767 41.6399 47.0267 42.3299C46.1433 43.2733 44.7533 44.1866 44.0167 44.3733L43.9033 44.4332C43.7824 44.4832 43.6601 44.5299 43.5367 44.5732C43.3367 44.6399 43.0767 44.7199 42.7767 44.7999C42.1767 44.9632 41.43 45.1133 40.7633 45.0966C40.449 45.0962 40.1378 45.0351 39.8467 44.9166C39.5723 44.8035 39.3524 44.5884 39.2333 44.3166C39.04 43.8533 39.1167 43.2032 39.54 42.2799L25.3667 53.4433V57.4599H31.5933L44.8 47.0866C45.1433 46.7066 45.66 46.1866 46.3567 45.5366C48.2233 43.8066 48.6467 43.2099 48.6467 42.3266C48.6467 41.6399 48.57 41.2932 48.3267 41.2932V41.2966ZM51.47 47.7966L50.34 48.9233C49.7067 49.5232 48.5767 50.2632 47.8033 50.5799L47.65 50.6466L47.64 50.6632L47.6067 50.6966C47.5767 50.7199 47.5633 50.7232 47.54 50.7332C47.2313 50.8501 46.9177 50.9535 46.6 51.0432C45.8937 51.2488 45.1673 51.3774 44.4333 51.4266C44.0863 51.4488 43.7379 51.4185 43.4 51.3366C43.1067 51.272 42.8478 51.101 42.6733 50.8566C42.5133 50.6099 42.4667 50.2799 42.5567 49.8732C42.6283 49.5837 42.7346 49.3039 42.8733 49.0399L32.2167 57.4599H46.39L48.0833 55.5199C50.41 52.8066 51.47 50.8666 51.47 49.2066V47.7966Z" fill="white"/>
</svg>
