<svg width="80" height="80" viewBox="0 0 80 80" fill="none" xmlns="http://www.w3.org/2000/svg">
<path d="M61.4738 27.2893L39.9695 38.4959L18.4641 27.2899L39.9695 16.6148L61.4738 27.2893ZM41.8722 41.474V61.9665L63.3039 51.331V30.3051L41.8722 41.474ZM2.80173 61.8349L38.0627 79.8327V65.8896L16.0156 54.9487L2.80173 61.8349ZM38.0627 61.9665V41.4717L16.631 30.3042V51.3312L38.0627 61.9667V61.9665ZM41.8722 0.16727V13.6359L65.3295 25.2799L78.0639 18.6437L41.8722 0.167114V0.16727ZM63.9231 54.947L41.8722 65.8896V79.8326L77.1377 61.8326L63.9231 54.947ZM67.1134 28.3199V52.6399L79.9349 59.3209V21.6381L67.1134 28.3199ZM14.6081 25.2806L38.0627 13.6379V0.16727L1.871 18.6435L14.6081 25.2806ZM12.8215 52.6437V28.3191L0 21.6382V59.3254L12.8215 52.6437Z" fill="white"/>
</svg>
