<svg width="80" height="80" viewBox="0 0 80 80" fill="none" xmlns="http://www.w3.org/2000/svg">
<path d="M51.1065 28.8933C53.994 28.8067 56.7343 27.5987 58.7461 25.5256C60.758 23.4524 61.8832 20.6772 61.8832 17.7883C61.8832 14.8995 60.758 12.1243 58.7461 10.0511C56.7343 7.97799 53.994 6.77001 51.1065 6.68335H28.8932C26.0056 6.77001 23.2654 7.97799 21.2535 10.0511C19.2417 12.1243 18.1164 14.8995 18.1164 17.7883C18.1164 20.6772 19.2417 23.4524 21.2535 25.5256C23.2654 27.5987 26.0056 28.8067 28.8932 28.8933C25.9804 28.9438 23.2039 30.1363 21.1619 32.2141C19.1198 34.2918 17.9756 37.0885 17.9756 40.0017C17.9756 42.9149 19.1198 45.7116 21.1619 47.7893C23.2039 49.867 25.9804 51.0596 28.8932 51.11C25.9946 51.181 23.2386 52.3824 21.2137 54.4575C19.1888 56.5327 18.0553 59.3173 18.0553 62.2167C18.0553 65.1161 19.1888 67.9007 21.2137 69.9758C23.2386 72.051 25.9946 73.2523 28.8932 73.3233C31.8389 73.3216 34.6634 72.1504 36.746 70.0672C38.8286 67.9839 39.9989 65.1591 39.9998 62.2133V28.8933H51.1065Z" fill="white"/>
<path d="M51.1067 51.1065C57.2407 51.1065 62.2133 46.1339 62.2133 39.9999C62.2133 33.8658 57.2407 28.8932 51.1067 28.8932C44.9726 28.8932 40 33.8658 40 39.9999C40 46.1339 44.9726 51.1065 51.1067 51.1065Z" fill="white"/>
</svg>
