<svg width="80" height="80" viewBox="0 0 80 80" fill="none" xmlns="http://www.w3.org/2000/svg">
<path d="M78.4894 36.4294L43.5545 1.5128C43.0761 1.03326 42.5078 0.652805 41.8821 0.393214C41.2565 0.133622 40.5857 0 39.9083 0C39.2309 0 38.5601 0.133622 37.9344 0.393214C37.3087 0.652805 36.7404 1.03326 36.262 1.5128L29.0221 8.76407L38.227 17.955C39.3083 17.5883 40.4708 17.5318 41.5825 17.792C42.6943 18.0522 43.7109 18.6187 44.517 19.4273C46.237 21.147 46.717 23.619 45.9895 25.7537L54.8445 34.6197C55.9294 34.2419 57.0989 34.1783 58.2184 34.4361C59.3379 34.694 60.3617 35.2627 61.172 36.0769C63.582 38.4715 63.582 42.3509 61.172 44.7479C60.6038 45.3172 59.9288 45.7688 59.1858 46.077C58.4429 46.3851 57.6464 46.5437 56.842 46.5437C56.0376 46.5437 55.2411 46.3851 54.4981 46.077C53.7551 45.7688 53.0802 45.3172 52.512 44.7479C51.6587 43.8943 51.0753 42.8086 50.8344 41.6259C50.5934 40.4433 50.7056 39.2159 51.157 38.0966L42.862 29.843V51.5968C43.447 51.8842 44.007 52.2742 44.4895 52.7566C46.872 55.1662 46.872 59.0305 44.4895 61.4276C43.3345 62.5777 41.7709 63.2235 40.1408 63.2235C38.5107 63.2235 36.947 62.5777 35.792 61.4276C35.0773 60.7128 34.5505 59.8324 34.2583 58.8648C33.9661 57.8972 33.9178 56.8724 34.1174 55.8816C34.3171 54.8908 34.7587 53.9647 35.4028 53.1857C36.047 52.4068 36.8737 51.7991 37.8095 51.4168V29.4555C37.0631 29.1386 36.3829 28.6841 35.8045 28.1158C34.9443 27.2579 34.3596 26.1629 34.1253 24.9708C33.891 23.7788 34.0179 22.544 34.4895 21.4244L25.4521 12.3385L1.49461 36.2794C0.536871 37.2512 0 38.5607 0 39.925C0 41.2893 0.536871 42.5989 1.49461 43.5706L36.4295 78.4872C36.9079 78.9667 37.4762 79.3472 38.1019 79.6068C38.7276 79.8664 39.3984 80 40.0758 80C40.7532 80 41.424 79.8664 42.0496 79.6068C42.6753 79.3472 43.2436 78.9667 43.722 78.4872L78.487 43.7281C78.9666 43.2498 79.3471 42.6816 79.6067 42.056C79.8664 41.4304 80 40.7598 80 40.0825C80 39.4052 79.8664 38.7345 79.6067 38.109C79.3471 37.4834 78.9666 36.9152 78.487 36.4369L78.4894 36.4294Z" fill="white"/>
</svg>
