<svg width="80" height="80" viewBox="0 0 80 80" fill="none" xmlns="http://www.w3.org/2000/svg">
<path fill-rule="evenodd" clip-rule="evenodd" d="M7.99992 16C7.29268 16 6.6144 16.281 6.1143 16.781C5.6142 17.2811 5.33325 17.9594 5.33325 18.6667C5.33325 19.3739 5.6142 20.0522 6.1143 20.5523C6.6144 21.0524 7.29268 21.3333 7.99992 21.3333H72C72.7072 21.3333 73.3855 21.0524 73.8856 20.5523C74.3857 20.0522 74.6666 19.3739 74.6666 18.6667C74.6666 17.9594 74.3857 17.2811 73.8856 16.781C73.3855 16.281 72.7072 16 72 16H7.99992ZM5.33325 40C5.33325 39.2928 5.6142 38.6145 6.1143 38.1144C6.6144 37.6143 7.29268 37.3333 7.99992 37.3333H72C72.7072 37.3333 73.3855 37.6143 73.8856 38.1144C74.3857 38.6145 74.6666 39.2928 74.6666 40C74.6666 40.7072 74.3857 41.3855 73.8856 41.8856C73.3855 42.3857 72.7072 42.6667 72 42.6667H7.99992C7.29268 42.6667 6.6144 42.3857 6.1143 41.8856C5.6142 41.3855 5.33325 40.7072 5.33325 40ZM5.33325 61.3333C5.33325 60.6261 5.6142 59.9478 6.1143 59.4477C6.6144 58.9476 7.29268 58.6667 7.99992 58.6667H72C72.7072 58.6667 73.3855 58.9476 73.8856 59.4477C74.3857 59.9478 74.6666 60.6261 74.6666 61.3333C74.6666 62.0406 74.3857 62.7189 73.8856 63.219C73.3855 63.7191 72.7072 64 72 64H7.99992C7.29268 64 6.6144 63.7191 6.1143 63.219C5.6142 62.7189 5.33325 62.0406 5.33325 61.3333Z" fill="#FF1842"/>
</svg>
