<svg width="80" height="80" viewBox="0 0 80 80" fill="none" xmlns="http://www.w3.org/2000/svg">
<g clip-path="url(#clip0)">
<path d="M36.8999 33.1247H43.0957L44.6347 31.0059V14.4069H35.3613V31.0069L36.8999 33.1245V33.1247ZM32.9058 40.5286L34.8202 34.6364L33.2805 32.5172L17.4941 27.3878L14.6283 36.2078L30.4171 41.3377L32.9058 40.5288V40.5286ZM38.7129 46.6141L33.7008 42.9724L31.2097 43.7831L21.4532 57.2119L28.9554 62.662L38.7129 49.2328V46.6141ZM46.296 42.9724L41.283 46.6141V49.2328L51.0399 62.662L58.543 57.212L48.7847 43.7817L46.296 42.9724ZM45.1741 34.6348L47.0894 40.5281L49.5804 41.3361L65.3668 36.2077L62.5015 27.3878L46.714 32.518L45.174 34.6347L45.1741 34.6348ZM64.2254 48.8836L52.2247 44.9836L53.0188 42.5391L65.0186 46.4389L64.2254 48.8836ZM48.9202 29.6175L46.8408 28.1069L54.2568 17.8978L56.3368 19.4081L48.9202 29.6175ZM31.2038 29.5238L23.7886 19.3153L25.8686 17.8044L33.2838 28.0136L31.2038 29.5238ZM15.721 48.7302L14.9272 46.2859L26.9268 42.3883L27.7202 44.8325L15.721 48.7302ZM38.6335 65.4941H41.2035V52.8759H38.6336V65.4941H38.6335ZM19.955 74.6167C-6.65136 59.2777 -6.65136 20.7222 19.955 5.38328C46.5615 -9.95562 80.0002 9.32219 80.0002 40C80.0002 70.6778 46.5616 89.9556 19.955 74.6167ZM71.899 40C71.899 15.5353 45.2327 0.161878 24.0147 12.3942C2.79677 24.6266 2.79692 55.3734 24.0147 67.6058C45.2326 79.8381 71.8991 64.4647 71.8991 40H71.899Z" fill="white"/>
</g>
<defs>
<clipPath id="clip0">
<rect width="80" height="80" fill="white"/>
</clipPath>
</defs>
</svg>
