<svg width="80" height="80" viewBox="0 0 80 80" fill="none" xmlns="http://www.w3.org/2000/svg">
<path d="M10 20.8333V59.1667C10 62.0398 11.1414 64.7953 13.173 66.827C15.2047 68.8586 17.9602 70 20.8333 70H59.1667C62.0398 70 64.7953 68.8586 66.827 66.827C68.8586 64.7953 70 62.0398 70 59.1667V20.8333C70 17.9602 68.8586 15.2047 66.827 13.173C64.7953 11.1414 62.0398 10 59.1667 10H20.8333C17.9602 10 15.2047 11.1414 13.173 13.173C11.1414 15.2047 10 17.9602 10 20.8333ZM40 31.6667C40.663 31.6667 41.2989 31.9301 41.7678 32.3989C42.2366 32.8677 42.5 33.5036 42.5 34.1667V54.1667C42.5 55.7138 41.8854 57.1975 40.7915 58.2915C39.6975 59.3854 38.2138 60 36.6667 60H32.5C31.837 60 31.2011 59.7366 30.7322 59.2678C30.2634 58.7989 30 58.163 30 57.5C30 56.837 30.2634 56.2011 30.7322 55.7322C31.2011 55.2634 31.837 55 32.5 55H36.6667C36.8877 55 37.0996 54.9122 37.2559 54.7559C37.4122 54.5996 37.5 54.3877 37.5 54.1667V34.1667C37.5 33.5036 37.7634 32.8677 38.2322 32.3989C38.7011 31.9301 39.337 31.6667 40 31.6667ZM46.6667 37.5C46.6667 34.28 49.28 31.6667 52.5 31.6667H57.5C58.163 31.6667 58.7989 31.9301 59.2678 32.3989C59.7366 32.8677 60 33.5036 60 34.1667C60 34.8297 59.7366 35.4656 59.2678 35.9344C58.7989 36.4033 58.163 36.6667 57.5 36.6667H52.5C52.279 36.6667 52.067 36.7545 51.9107 36.9107C51.7545 37.067 51.6667 37.279 51.6667 37.5V42.5C51.6667 42.96 52.04 43.3333 52.5 43.3333H54.1667C57.3867 43.3333 60 45.9467 60 49.1667V54.1667C60 55.7138 59.3854 57.1975 58.2915 58.2915C57.1975 59.3854 55.7138 60 54.1667 60H49.1667C48.5036 60 47.8677 59.7366 47.3989 59.2678C46.9301 58.7989 46.6667 58.163 46.6667 57.5C46.6667 56.837 46.9301 56.2011 47.3989 55.7322C47.8677 55.2634 48.5036 55 49.1667 55H54.1667C54.3877 55 54.5996 54.9122 54.7559 54.7559C54.9122 54.5996 55 54.3877 55 54.1667V49.1667C55 48.9457 54.9122 48.7337 54.7559 48.5774C54.5996 48.4211 54.3877 48.3333 54.1667 48.3333H52.5C50.9529 48.3333 49.4692 47.7188 48.3752 46.6248C47.2812 45.5308 46.6667 44.0471 46.6667 42.5V37.5Z" fill="white"/>
</svg>
