<svg width="80" height="80" viewBox="0 0 80 80" fill="none" xmlns="http://www.w3.org/2000/svg">
<path d="M31.8767 25.0167L32.0633 25.4067L49.7533 68.7567C50.0751 69.5444 50.0835 70.4254 49.7767 71.219C49.4699 72.0127 48.8712 72.659 48.1033 73.0255C47.3353 73.392 46.4563 73.451 45.6463 73.1903C44.8363 72.9296 44.1567 72.369 43.7467 71.6234L43.58 71.2734L38.9767 60H18.0233L13.0567 71.3567C12.7288 72.1049 12.1376 72.7066 11.3953 73.0477C10.653 73.3887 9.81128 73.4453 9.03002 73.2067L8.66335 73.0734C7.91454 72.7461 7.31206 72.1551 6.97038 71.4127C6.6287 70.6704 6.57163 69.8284 6.81001 69.0467L6.94335 68.68L25.9267 25.3334C27.0467 22.7667 30.5733 22.6834 31.88 25.02L31.8767 25.0167ZM63.3333 6.66669C64.1498 6.66679 64.9378 6.96654 65.5479 7.50907C66.158 8.0516 66.5478 8.79918 66.6433 9.61002L66.6667 10V23.3334H70C70.8165 23.3335 71.6045 23.6332 72.2146 24.1757C72.8247 24.7183 73.2145 25.4658 73.31 26.2767L73.3333 26.6667C73.3332 27.4831 73.0335 28.2711 72.491 28.8813C71.9484 29.4914 71.2009 29.8812 70.39 29.9767L70 30H66.6667V53.3334C66.6666 54.1498 66.3668 54.9378 65.8243 55.5479C65.2818 56.158 64.5342 56.5478 63.7233 56.6434L63.3333 56.6667C62.5169 56.6666 61.7289 56.3668 61.1188 55.8243C60.5087 55.2818 60.1189 54.5342 60.0233 53.7234L60 53.3334V10C60 9.11597 60.3512 8.26812 60.9763 7.643C61.6014 7.01788 62.4493 6.66669 63.3333 6.66669ZM28.8667 35.2234L20.94 53.3334H36.2567L28.8667 35.2234ZM36.6667 6.66669H53.3333C54.1498 6.66679 54.9378 6.96654 55.5479 7.50907C56.158 8.0516 56.5478 8.79918 56.6433 9.61002L56.6667 10V19.9167C56.6667 23.4529 55.2619 26.8443 52.7614 29.3448C50.261 31.8453 46.8696 33.25 43.3333 33.25C42.4493 33.25 41.6014 32.8988 40.9763 32.2737C40.3512 31.6486 40 30.8007 40 29.9167C40 29.0326 40.3512 28.1848 40.9763 27.5597C41.6014 26.9345 42.4493 26.5834 43.3333 26.5834C45.0153 26.5839 46.6352 25.9487 47.8685 24.805C49.1018 23.6614 49.8572 22.0939 49.9833 20.4167L50 19.9167V13.3334H36.6667C35.8171 13.3324 34.9999 13.0071 34.3821 12.4239C33.7643 11.8406 33.3926 11.0435 33.3428 10.1954C33.293 9.34723 33.5689 8.51209 34.1142 7.86058C34.6595 7.20907 35.433 6.79037 36.2767 6.69002L36.6667 6.66669H53.3333H36.6667Z" fill="white"/>
</svg>
