<svg width="80" height="80" viewBox="0 0 80 80" fill="none" xmlns="http://www.w3.org/2000/svg">
<path d="M24.52 11.172C27.2479 9.1061 30.5781 7.99183 34 8.00005C34.96 8.00005 35.724 8.50004 36.168 8.84404C36.664 9.23605 37.128 9.73605 37.544 10.236C37.839 10.5943 38.0002 11.044 38 11.508V26H33.66C33.1882 24.6656 32.2599 23.5409 31.039 22.8248C29.8182 22.1086 28.3835 21.8471 26.9885 22.0865C25.5935 22.3258 24.3281 23.0506 23.4158 24.1327C22.5035 25.2149 22.0031 26.5847 22.0031 28C22.0031 29.4154 22.5035 30.7852 23.4158 31.8674C24.3281 32.9495 25.5935 33.6743 26.9885 33.9136C28.3835 34.153 29.8182 33.8915 31.039 33.1753C32.2599 32.4592 33.1882 31.3345 33.66 30H38V67.66C38.0002 67.9562 37.9346 68.2486 37.808 68.5163C37.6815 68.7841 37.497 69.0203 37.268 69.208C35.42 70.72 32.948 72 30 72C25.256 72 21.724 69.608 19.44 66.748C17.799 64.7103 16.6751 62.306 16.164 59.74C14.6099 59.3257 13.169 58.5669 11.948 57.52C9.74 55.628 8 52.56 8 48C8 45.772 8.148 43.76 8.48 42H21C23.544 42 25.64 43.9 25.96 46.356C24.6298 46.8374 23.5124 47.7734 22.8053 48.9986C22.0981 50.2238 21.8466 51.6594 22.0951 53.0521C22.3436 54.4447 23.0763 55.7048 24.1636 56.6097C25.2509 57.5146 26.623 58.0063 28.0376 57.9978C29.4523 57.9894 30.8184 57.4814 31.8948 56.5635C32.9713 55.6456 33.6888 54.3769 33.9206 52.9814C34.1525 51.5859 33.8839 50.1533 33.1621 48.9367C32.4403 47.72 31.3119 46.7975 29.976 46.332C29.8074 44.0669 28.7885 41.9492 27.1238 40.4039C25.459 38.8585 23.2715 37.9998 21 38H9.764C10.376 36.808 11.196 35.8 12.264 35.084C12.5342 34.9052 12.8177 34.7474 13.112 34.612C11.976 31.284 12.272 27.388 13.368 24.328C14.068 22.36 15.18 20.5 16.708 19.26C17.716 18.44 18.916 17.9 20.228 17.796C20.804 15.064 22.424 12.804 24.524 11.172H24.52ZM42 58H45C47.3869 58 49.6761 57.0518 51.364 55.364C53.0518 53.6762 54 51.387 54 49V41.66C55.3344 41.1883 56.4591 40.2599 57.1753 39.0391C57.8914 37.8183 58.1529 36.3836 57.9136 34.9886C57.6742 33.5936 56.9495 32.3281 55.8673 31.4158C54.7852 30.5036 53.4154 30.0032 52 30.0032C50.5846 30.0032 49.2148 30.5036 48.1327 31.4158C47.0505 32.3281 46.3258 33.5936 46.0864 34.9886C45.8471 36.3836 46.1086 37.8183 46.8247 39.0391C47.5409 40.2599 48.6656 41.1883 50 41.66V49C50 51.76 47.76 54 45 54H42V11.508C41.9998 11.044 42.161 10.5943 42.456 10.236C42.868 9.73605 43.336 9.23605 43.832 8.84404C44.272 8.50004 45.036 8.00005 46 8.00005C49.4219 7.99183 52.7521 9.1061 55.48 11.172C57.58 12.804 59.2 15.064 59.772 17.796C61.084 17.896 62.284 18.44 63.292 19.26C64.82 20.5 65.932 22.36 66.632 24.328C67.728 27.388 68.024 31.288 66.888 34.608C67.176 34.744 67.46 34.904 67.736 35.088C68.836 35.82 69.672 36.868 70.288 38.104C71.5 40.524 72 43.9 72 48C72 52.564 70.26 55.628 68.052 57.52C66.831 58.5669 65.3901 59.3257 63.836 59.74C63.436 61.972 62.316 64.556 60.56 66.748C58.28 69.608 54.744 72 50 72C47.056 72 44.58 70.72 42.736 69.208C42.5063 69.0207 42.321 68.7846 42.1938 68.5169C42.0665 68.2492 42.0003 67.9565 42 67.66V58ZM28 26C27.4696 26 26.9609 26.2108 26.5858 26.5858C26.2107 26.9609 26 27.4696 26 28C26 28.5305 26.2107 29.0392 26.5858 29.4143C26.9609 29.7893 27.4696 30 28 30C28.5304 30 29.0391 29.7893 29.4142 29.4143C29.7893 29.0392 30 28.5305 30 28C30 27.4696 29.7893 26.9609 29.4142 26.5858C29.0391 26.2108 28.5304 26 28 26ZM28 50C27.4696 50 26.9609 50.2108 26.5858 50.5858C26.2107 50.9609 26 51.4696 26 52C26 52.5305 26.2107 53.0392 26.5858 53.4143C26.9609 53.7893 27.4696 54 28 54C28.5304 54 29.0391 53.7893 29.4142 53.4143C29.7893 53.0392 30 52.5305 30 52C30 51.4696 29.7893 50.9609 29.4142 50.5858C29.0391 50.2108 28.5304 50 28 50ZM52 38C52.5304 38 53.0391 37.7893 53.4142 37.4143C53.7893 37.0392 54 36.5305 54 36C54 35.4696 53.7893 34.9609 53.4142 34.5858C53.0391 34.2108 52.5304 34 52 34C51.4696 34 50.9609 34.2108 50.5858 34.5858C50.2107 34.9609 50 35.4696 50 36C50 36.5305 50.2107 37.0392 50.5858 37.4143C50.9609 37.7893 51.4696 38 52 38Z" fill="white"/>
</svg>
