<svg width="80" height="80" viewBox="0 0 80 80" fill="none" xmlns="http://www.w3.org/2000/svg">
<path d="M0 5.73C0 2.565 2.63 0 5.875 0H74.125C77.37 0 80 2.565 80 5.73V74.27C80 77.435 77.37 80 74.125 80H5.875C2.63 80 0 77.435 0 74.27V5.73ZM24.715 66.97V30.845H12.71V66.97H24.715ZM18.715 25.91C22.9 25.91 25.505 23.14 25.505 19.67C25.43 16.125 22.905 13.43 18.795 13.43C14.685 13.43 12 16.13 12 19.67C12 23.14 14.605 25.91 18.635 25.91H18.715V25.91ZM43.255 66.97V46.795C43.255 45.715 43.335 44.635 43.655 43.865C44.52 41.71 46.495 39.475 49.815 39.475C54.16 39.475 55.895 42.785 55.895 47.645V66.97H67.9V46.25C67.9 35.15 61.98 29.99 54.08 29.99C47.71 29.99 44.855 33.49 43.255 35.955V36.08H43.175C43.2016 36.0383 43.2282 35.9966 43.255 35.955V30.845H31.255C31.405 34.235 31.255 66.97 31.255 66.97H43.255Z" fill="white"/>
</svg>
