<svg width="80" height="80" viewBox="0 0 80 80" fill="none" xmlns="http://www.w3.org/2000/svg">
<path d="M72.1595 53.7406C72.4935 54.3133 72.5863 54.9952 72.4176 55.6363C72.2489 56.2774 71.8324 56.8253 71.2598 57.1594L41.2598 74.6594C40.8775 74.8824 40.4428 74.9999 40.0001 74.9999C39.5575 74.9999 39.1228 74.8824 38.7404 74.6594L8.74044 57.1594C8.17253 56.8229 7.76074 56.2755 7.59492 55.6365C7.42911 54.9976 7.52272 54.319 7.85534 53.7488C8.18796 53.1786 8.73258 52.7631 9.37039 52.593C10.0082 52.4229 10.6874 52.5119 11.2598 52.8406L40.0001 69.6056L68.7404 52.8406C69.3132 52.5066 69.9952 52.4137 70.6364 52.5825C71.2776 52.7513 71.8255 53.1679 72.1595 53.7406ZM68.7404 37.8406L40.0001 54.6056L11.2598 37.8406C10.6874 37.5119 10.0082 37.4229 9.37039 37.593C8.73258 37.7631 8.18796 38.1786 7.85534 38.7488C7.52272 39.319 7.42911 39.9976 7.59492 40.6365C7.76074 41.2755 8.17253 41.8229 8.74044 42.1594L38.7404 59.6594C39.1228 59.8824 39.5575 59.9999 40.0001 59.9999C40.4428 59.9999 40.8775 59.8824 41.2598 59.6594L71.2598 42.1594C71.8277 41.8229 72.2395 41.2755 72.4053 40.6365C72.5712 39.9976 72.4775 39.319 72.1449 38.7488C71.8123 38.1786 71.2677 37.7631 70.6299 37.593C69.9921 37.4229 69.3129 37.5119 68.7404 37.8406ZM8.74044 27.1594L38.7404 44.6594C39.1228 44.8824 39.5575 44.9999 40.0001 44.9999C40.4428 44.9999 40.8775 44.8824 41.2598 44.6594L71.2598 27.1594C71.6372 26.9392 71.9503 26.624 72.1679 26.2451C72.3855 25.8662 72.5 25.4369 72.5 25C72.5 24.5631 72.3855 24.1338 72.1679 23.7549C71.9503 23.376 71.6372 23.0608 71.2598 22.8406L41.2598 5.34062C40.8775 5.11758 40.4428 5.00006 40.0001 5.00006C39.5575 5.00006 39.1228 5.11758 38.7404 5.34062L8.74044 22.8406C8.36305 23.0608 8.04995 23.376 7.83235 23.7549C7.61475 24.1338 7.50024 24.5631 7.50024 25C7.50024 25.4369 7.61475 25.8662 7.83235 26.2451C8.04995 26.624 8.36305 26.9392 8.74044 27.1594Z" fill="white"/>
</svg>
