<svg width="80" height="80" viewBox="0 0 80 80" fill="none" xmlns="http://www.w3.org/2000/svg">
<path d="M55.4426 55.0124C58.3451 54.7649 60.5851 52.2124 60.4426 49.1649C60.2851 46.1174 57.7851 43.6724 54.7526 43.6724H54.5426C53.0323 43.7265 51.6054 44.3781 50.5754 45.4841C49.5454 46.59 48.9968 48.0596 49.0501 49.5699C49.1526 51.1724 49.8026 52.4599 50.7026 53.4099C47.2001 60.2074 41.9651 65.1974 34.0101 69.3999C28.6726 72.1874 23.0326 73.2424 17.5401 72.4874C12.9426 71.8499 9.35013 69.7949 7.15013 66.4974C3.85263 61.4974 3.55263 56.1199 6.30263 50.7174C8.30513 46.8249 11.3026 43.9699 13.2926 42.5774C12.6945 40.9024 12.2289 39.1829 11.9001 37.4349C-2.88987 48.0224 -1.37987 62.5149 3.11263 69.3524C6.46013 74.3524 13.2926 77.5424 20.7801 77.5424C22.7876 77.5424 24.8826 77.3999 26.9276 76.8899C39.9251 74.3899 49.7551 66.6024 55.3901 55.1199L55.4426 55.0124ZM73.2676 42.5274C65.5351 33.4374 54.1401 28.4374 41.1601 28.4374H39.4526C38.6201 26.5999 36.6651 25.4449 34.4651 25.4449H34.3226C31.1726 25.4449 28.7226 28.1524 28.8251 31.2924C28.9326 34.2849 31.4676 36.7849 34.5151 36.7849H34.7651C35.8464 36.741 36.8923 36.3876 37.7786 35.7667C38.6649 35.1459 39.3544 34.2836 39.7651 33.2824H41.6126C49.3101 33.2824 56.5901 35.5349 63.2426 39.9249C68.3201 43.2674 71.9801 47.6724 74.0226 52.9174C75.8201 57.1999 75.7151 61.4074 73.8651 64.9099C71.0276 70.3899 66.2226 73.2924 59.8951 73.2924C55.8976 73.2924 52.0051 72.0424 49.9976 71.1449C48.8001 72.1349 46.7951 73.7874 45.3476 74.7924C49.7501 76.7824 54.1901 77.9299 58.4876 77.9299C68.2276 77.9299 75.4676 72.4474 78.2151 67.1499C81.2076 61.1599 80.9626 51.0674 73.3176 42.4224L73.2676 42.5274ZM21.6276 56.8099C21.696 58.2809 22.325 59.6698 23.3856 60.6913C24.4462 61.7128 25.8577 62.2893 27.3301 62.3024H27.5276C28.2783 62.2846 29.0178 62.1169 29.7027 61.8091C30.3876 61.5013 31.004 61.0597 31.5157 60.5103C32.0275 59.9608 32.4242 59.3145 32.6825 58.6095C32.9409 57.9045 33.0557 57.155 33.0201 56.4049C33.0201 53.4074 30.4301 50.9074 27.3826 50.9074H27.1726C26.9801 50.9074 26.6801 50.9074 26.4201 51.0149C22.2801 44.0224 20.5326 36.5224 21.1826 28.4349C21.5751 22.3424 23.5801 17.0549 27.1726 12.6549C30.1701 8.91745 35.8051 7.05495 39.6601 6.96495C50.4426 6.75495 54.9476 20.2049 55.2876 25.5449L60.2876 27.0424C59.1276 10.6624 48.9476 2.06995 39.2076 2.06995C30.0676 2.06995 21.6276 8.70995 18.2301 18.4499C13.5926 31.4474 16.6401 43.9199 22.3301 53.9199C21.8376 54.5574 21.5376 55.7174 21.6276 56.8099Z" fill="white"/>
</svg>
