<svg width="80" height="80" viewBox="0 0 80 80" fill="none" xmlns="http://www.w3.org/2000/svg">
<path d="M17.7777 42.2222V24.4445H11.111C9.34289 24.4445 7.6472 25.1468 6.39696 26.3971C5.14672 27.6473 4.44434 29.343 4.44434 31.1111V71.1111C4.44764 71.5238 4.56582 71.9275 4.78562 72.2768C5.00542 72.6261 5.31815 72.9073 5.68878 73.0889C6.04584 73.2513 6.43953 73.3163 6.82984 73.2772C7.22014 73.2382 7.59316 73.0966 7.911 72.8667L19.3554 64.4445H49.2221C50.0644 64.4694 50.9027 64.3211 51.6853 64.0088C52.4679 63.6965 53.1781 63.2269 53.7718 62.629C54.3656 62.0311 54.8302 61.3177 55.137 60.5329C55.4438 59.7481 55.5862 58.9087 55.5555 58.0667V55.5556H31.111C27.5748 55.5556 24.1834 54.1508 21.6829 51.6503C19.1824 49.1498 17.7777 45.7585 17.7777 42.2222Z" fill="white"/>
<path d="M68.8888 8.88892H31.111C29.3429 8.88892 27.6472 9.5913 26.397 10.8415C25.1467 12.0918 24.4443 13.7875 24.4443 15.5556V42.2223C24.4443 43.9904 25.1467 45.6861 26.397 46.9363C27.6472 48.1865 29.3429 48.8889 31.111 48.8889H61.2221L71.8443 57.1334C72.1601 57.3668 72.5321 57.5124 72.9225 57.5554C73.3128 57.5983 73.7076 57.537 74.0666 57.3778C74.4447 57.1977 74.7643 56.9144 74.9884 56.5605C75.2125 56.2067 75.332 55.7967 75.3332 55.3778V15.5556C75.3342 13.8253 74.6624 12.1624 73.4598 10.9184C72.2572 9.67435 70.6181 8.94659 68.8888 8.88892Z" fill="white"/>
</svg>
